<svg width="613" height="223" viewBox="0 0 613 223" fill="none" xmlns="http://www.w3.org/2000/svg">
    <path d="M334.547 180.172c.125.062.203.203.234.422.063.218.094.39.094.515-.094.219-.203.391-.328.516s-.266.234-.422.328c-.625.25-1.234.344-1.828.281-.625 0-1.219-.031-1.781-.093-.282-.063-.516-.094-.704-.094-2.906-.281-5.796-.594-8.671-.938-6.75-.687-13.453-1.343-20.11-1.968-12.937-1.157-25.89-2.219-38.859-3.188-18.156-1.25-36.344-2.219-54.563-2.906-13.062-.469-26.125-.813-39.187-1.031-1.438-.063-2.891-.094-4.36-.094-1.5 0-2.968-.031-4.406-.094-8.875-.219-17.75-.328-26.625-.328h-.187c-5.219 0-10.406.109-15.563.328-1.937.063-3.828.094-5.672.094-2.343.062-4.718.516-7.125 1.359-18.0309 6.313-36.2496 10.953-54.6559 13.922-5.3125.875-10.6093 1.609-15.8906 2.203-5.2813.594-10.5781.891-15.8906.891-1.7188 0-3.4375-.031-5.1563-.094-2.5937 0-5.09372-.344-7.49998-1.031-.96874-.219-1.875-.531-2.71874-.938-.75-.281-1.39063-.687-1.92188-1.218-.5-.5-.71875-1.204-.65625-2.11.15625-.875.53125-1.625 1.125-2.25.625-.625 1.32813-1.14 2.10937-1.547 2.40626-1.375 4.9375-2.297 7.59378-2.765 1.3125-.344 2.6562-.656 4.0312-.938 4.4688-1.031 8.9688-1.89 13.5-2.578 18.1563-2.687 36.25-4.437 54.2813-5.25 1.0937-.094 2.1562-.172 3.1875-.234 5.5625-.282 11.125-.516 16.6871-.703 2-.063 4-.438 6-1.125 6.875-2.563 13.641-5.422 20.297-8.578 6.688-3.157 13.219-6.735 19.594-10.735 5.312-3.219 10.203-7.031 14.672-11.437 2.531-2.407 4.594-5.125 6.187-8.157 2.125-4.406 1.735-8.218-1.171-11.437-2.063-2.125-4.5-3.781-7.313-4.969-3.719-1.719-7.594-3.094-11.625-4.125-4-1.031-8.062-1.922-12.188-2.672-11.687-1.906-23.609-3.078-35.765-3.515h-2.7189c-1.0312.156-1.8125.781-2.3437 1.875-.2813.468-.5313.922-.75 1.359-.5313 1.031-1.0782 2.063-1.6406 3.094-4.3126 8.719-8.6094 17.406-12.8907 26.062-3.5625 7.375-7.1719 14.703-10.8281 21.985-.0625.281-.1562.515-.2812.703-.4376.906-.9219 1.765-1.4532 2.578-.625.687-1.3437.969-2.1562.844-.5.062-.9844.031-1.4532-.094-.8437-.438-1.125-1.094-.8437-1.969.75-1.937 1.5781-3.828 2.4844-5.672 5.4375-11.562 10.875-23.078 16.3125-34.547 1.7812-3.656 3.5312-7.297 5.25-10.921.125-.344.2656-.657.4218-.938.4063-.844.7813-1.672 1.125-2.484.4688-1.25.0938-1.907-1.125-1.969-.625-.063-1.25-.094-1.875-.094-.8124-.062-1.6093-.125-2.3906-.187h-.5156c-.9375-.094-1.8281-.25-2.6719-.469-.8125-.25-1.2969-.891-1.4531-1.922 0-1.1562.3906-2.0156 1.1719-2.5781.8125-.5625 1.7031-1.0157 2.6719-1.3594.3437-.125.6562-.2187.9374-.2813 2.5938-1.0937 5.2344-2.0624 7.9219-2.9062.2813-.125.5938-.2188.9375-.2812 2.0625-.625 3.6094-1.9376 4.6406-3.9376 4.5938-8.7187 9.2028-17.4218 13.8278-26.1093 1.563-3 3.172-6.0469 4.829-9.1407.218-.4374.421-.8593.609-1.2656.406-.875.891-1.7344 1.453-2.5781.688-1.0313 1.578-1.4375 2.672-1.2187.5-.0626.984-.0313 1.453.0937 1.031.4687 1.344 1.2656.937 2.3906 0 .0625-.031.0938-.093.0938-.781 2.3437-1.719 4.6093-2.813 6.7969-2.687 5.2812-5.437 10.5781-8.25 15.8906-.875 1.7812-1.797 3.5625-2.765 5.3437-.5.9063-.985 1.7969-1.453 2.6719-.813 1.5312-1.61 3.0781-2.391 4.6406 0 0-.031.0469-.094.1406-.125.25-.234.5157-.328.7969-.063.2813.078.4844.422.6094.219.0937.437.1719.656.2344l.188-.0938c.406-.0937.859-.2031 1.359-.3281l.375-.1875c15.063-4.75 30.109-9.6719 45.141-14.7656 15.031-5.0938 29.968-10.5625 44.812-16.4063.344-.125.656-.2187.938-.2812 4.531-1.875 9.046-3.75 13.546-5.625 4.5-1.9063 8.954-3.9532 13.36-6.1406 3.281-1.5938 6.375-3.4844 9.281-5.6719 6.188-5.0313 6.453-9.5313.797-13.5-2.656-1.8125-5.562-3.1875-8.719-4.125-3.125-.9688-6.328-1.6563-9.609-2.0625-7.844-1.1875-15.781-1.7813-23.813-1.7813h-.14c-7.75.0625-15.578.4375-23.485 1.125-17.531 1.5313-35.031 4.5-52.5 8.9063C101.891 30.2031 86.1094 35.625 70.6406 42.5c-4.0625 1.7812-8.0156 3.8125-11.8594 6.0938-1.0937.6874-2.1874 1.3124-3.2812 1.875-.625.25-1.2188.3124-1.7812.1874-.75.125-1.3594-.0781-1.8282-.6093-.3437-.5-.3594-.9531-.0468-1.3594.3124-.4063.7031-.75 1.1718-1.0313 3.3125-2.3437 6.75-4.2968 10.3125-5.8593.0625 0 .125-.0313.1875-.0938 14.5938-6.875 29.5156-12.375 44.7654-16.5 22-6.0625 44.11-9.8437 66.328-11.3437 6.875-.5 13.719-.75 20.532-.75 7.406-.0625 14.75.3125 22.031 1.125 6.875.6875 13.406 2.2812 19.594 4.7812 2.906 1.0938 5.422 2.7344 7.546 4.9219 1.782 1.9375 2.563 4.0781 2.344 6.4219-.187 2.3125-1.312 4.6094-3.375 6.8906-2.625 2.625-5.547 4.7969-8.765 6.5156-3.907 2.1875-7.891 4.1719-11.954 5.9532-4.062 1.7812-8.156 3.5-12.281 5.1562-.125.0625-.297.1406-.515.2344-14.375 5.9062-28.875 11.3906-43.5 16.4531-14.594 5.0313-29.25 9.8906-43.969 14.5781-2.469.8125-4.938 1.6406-7.406 2.4844-3.438 1.1562-6.875 2.2812-10.313 3.375-1.5.3438-2.703 1.1719-3.609 2.4844-.75 1.25-1.0784 2.2187-.9846 2.9062.0936.6875.8746 1.0625 2.3436 1.125 3.906.125 7.813.3282 11.719.6094h.75c7.406.4688 14.719 1.266 21.937 2.391 7.219 1.093 14.266 2.703 21.141 4.828 2.969.968 5.828 2.062 8.578 3.281 1.844.844 3.594 1.875 5.25 3.094 7.094 5.5 7.609 12.422 1.547 20.765-2 2.75-4.297 5.25-6.891 7.5-6.406 5.5-13.281 10.25-20.625 14.25-6.343 3.5-12.781 6.735-19.312 9.704-.75.25-1.531.593-2.344 1.031-.406.187-.859.39-1.359.609.406.625.781 1 1.125 1.125s.734.156 1.172.094h.093c1.157.062 2.282.094 3.375.094h.141c.75 0 1.5-.032 2.25-.094h10.313c20.406.062 40.718.515 60.937 1.359 22 .75 43.906 2.094 65.719 4.032 6.937.593 13.875 1.203 20.812 1.828 8.375.687 16.735 1.406 25.078 2.156 4.875.5 9.719 1.094 14.532 1.781 1.156.125 2.359.266 3.609.422.875.125 1.766.391 2.672.797zM92.1094 97.7656c.125-.0625.25-.1875.375-.375.1562-.2187.2656-.3906.3281-.5156 0-.1562-.0313-.2656-.0937-.3281-.0626-.0625-.1719-.1719-.3282-.3281 0 0-.0312-.0313-.0937-.0938-.75.1562-1.4375.5312-2.0625 1.125-.125.1562-.1719.3281-.1406.5156.0312.1563.1562.2344.375.2344.5312 0 1.0781-.0781 1.6406-.2344zm-5.1563 76.9684c.125-.093.2657-.14.4219-.14.25-.063.5156-.188.7969-.375.2812-.157.4843-.407.6093-.75-.125-.281-.25-.453-.375-.516h-.2343c-16.625.75-33.2969 2.156-50.0157 4.219-8.25.969-16.4687 2.516-24.6562 4.64-.1875.094-.3906.172-.6094.235-1.4375.281-2.7344.859-3.8906 1.734-.28125.219-.46875.453-.5625.703-.0625.282.07812.532.42188.75.6875.282 1.42182.516 2.20312.704 2.6563.5 5.3594.75 8.1094.75 2.3437 0 4.6875-.11 7.0312-.329 20.3438-1.718 40.5938-5.593 60.75-11.625zm121.8279-48.093c1.031-1.032 1.891-1.61 2.578-1.735.688-.125 1.125-.015 1.313.328.219.344.094.813-.375 1.407-2.75 3.312-5.828 6.171-9.235 8.578-3.406 2.406-6.921 3.797-10.546 4.172-3.594.375-5.766-1.594-6.516-5.907-.562-4.281 2.031-13 7.781-26.156 5.75-13.1561 10.297-23.9374 13.641-32.3436.281-.75.703-1.4063 1.266-1.9688.75-.75 1.64-.9218 2.671-.5156.344.1562.688.4062 1.032.75.343.3438.453.9531.328 1.8281-14.781 35.0629-21.938 54.1249-21.469 57.1879.469 3.062 2.438 3.828 5.906 2.296 3.5-1.562 6.188-3.14 8.063-4.734 1.906-1.625 3.093-2.687 3.562-3.187zM236.25 131c-1.812 1.781-3.922 3.312-6.328 4.594-2.406 1.25-4.422 2.078-6.047 2.484-1.625.375-3.297.594-5.016.656-2.75.125-5.281-.25-7.593-1.125-3.782-1.531-5.094-4.453-3.938-8.765 1.094-3.719 3.313-6.625 6.656-8.719 3.344-2.094 6.797-3.109 10.36-3.047h.094c.906-.062 1.765 0 2.578.188 1.375.5 2.25 1.312 2.625 2.437.375 1.125.125 2.375-.75 3.75-2 3.031-4.719 4.719-8.157 5.063-2.281.218-4.484.109-6.609-.328-.406-.063-.766.046-1.078.328-.313.281-.5.625-.563 1.031-.625 2.687.204 4.406 2.485 5.156 2.812.969 5.734.969 8.765 0 3.5-1.094 6.828-3.156 9.985-6.187 3.156-3.032 4.969-4.438 5.437-4.219.5.187.656.765.469 1.734-.437 1.531-1.563 3.188-3.375 4.969zm-19.969-7.547c-.187.219-.328.469-.422.75-.062.25.047.485.329.703 1.093.625 2.281.86 3.562.703 1.281-.187 2.359-.671 3.234-1.453.907-.812 1.297-1.797 1.172-2.953-.094-.406-.312-.656-.656-.75-.344-.125-.688-.156-1.031-.094-2.313.407-4.375 1.438-6.188 3.094zm21.703 17.25c-2.968 0-4.453-1.547-4.453-4.641 0-3.781 2.453-10.453 7.36-20.015.187-.406.531-.609 1.031-.609 1.969 0 2.953.781 2.953 2.343 0 .563-.172 1.25-.516 2.063-.125.218-1.765 4.344-4.921 12.375-.5 1.312-.75 2.281-.75 2.906 0 .687.312 1.031.937 1.031 2.281 0 8.266-5.672 17.953-17.015 1.25-1.532 2.484-2.297 3.703-2.297 1.781 0 2.672.656 2.672 1.968 0 .5-.547 2.391-1.641 5.672-1.5 4.469-2.25 7.047-2.25 7.735 0 1.031.344 1.547 1.032 1.547 1.718 0 6.734-3.063 15.047-9.188.468-.406.875-.609 1.218-.609.782 0 1.172.656 1.172 1.969 0 .343-.109.624-.328.843-4.406 3.781-8.156 6.657-11.25 8.625-2.812 1.813-5.312 2.719-7.5 2.719h-.656c-3.219-.687-4.828-3.203-4.828-7.547-3.438 3.031-6.297 5.484-8.578 7.36-2.25 1.843-4.719 2.765-7.407 2.765zm308.25 10.078c.125.063.25.172.375.328.157.188.235.391.235.61 0 .343-.11.609-.328.797-.188.218-.422.328-.704.328l-.937-.094c-.125.062-.219.094-.281.094-17.344-.969-34.438-1.563-51.282-1.782-16.843-.187-33.828-.25-50.953-.187h-8.343c-1.719 0-3.11.328-4.172.984-1.063.657-1.969 1.813-2.719 3.469-4.406 10.031-8.906 20.031-13.5 30-2.5 5.438-4.984 10.875-7.453 16.313-1.781 3.968-3.531 7.984-5.25 12.047-.906 2-1.766 4-2.578 6-.063.187-.172.39-.328.609-.125.562-.36 1.078-.704 1.547-.562.468-1.296.734-2.203.797-.875.093-1.64-.079-2.297-.516-.656-.406-.843-1.125-.562-2.156.625-1.719 1.312-3.391 2.062-5.016 6.594-15.062 13.235-30.125 19.922-45.187 1.563-3.5 3.141-7.047 4.735-10.641.219-.531.453-1.109.703-1.734.562-1.25 1.125-2.485 1.687-3.703.532-1.376.188-2.141-1.031-2.297-8.75.218-17.453.609-26.109 1.171-4.531.25-9.11.485-13.735.704-2.593.062-4.406 1.296-5.437 3.703-4.531 9.781-9.25 19.484-14.156 29.109-2.875 5.688-5.797 11.391-8.766 17.11-1.094 2.062-2.187 4.124-3.281 6.187-.625 1.313-1.313 2.547-2.063 3.703-.75 1.031-1.765 1.656-3.047 1.875-1.281.25-2.406.188-3.375-.187-.937-.375-1.375-.969-1.312-1.782.344-1.593.828-3.109 1.453-4.546 4.938-12.657 10.328-25.094 16.172-37.313 2.062-4.344 4.125-8.687 6.187-13.031.563-1.375.188-2.156-1.125-2.344-1.312-.156-3.234-.094-5.765.188h-.328c-4.407.406-8.938 1.015-13.594 1.828-4.625.843-7.656 1.468-9.094 1.875-1.437.343-2.906.515-4.406.515-.094.094-.203.141-.328.141s-.266-.047-.422-.141l-.797.141c-.281 0-.562-.109-.844-.328-.281-.219-.422-.5-.422-.844.063-.187.172-.422.328-.703.188-.281.391-.484.61-.61 5.5-1.937 11.109-3.281 16.828-4.031 6.531-.969 13.062-1.797 19.594-2.484 2.187-.063 3.734-1.063 4.64-3 1.907-3.906 3.891-7.813 5.954-11.719 2.468-4.625 4.984-9.234 7.546-13.828.875-1.719 1.766-3.438 2.672-5.156.125-.156.235-.328.328-.516.25-.562.547-1.078.891-1.547 1.719-2 3.156-4.172 4.313-6.515 1.187-2.344 2.265-4.75 3.234-7.219.469-1.031.922-2.0626 1.359-3.0939 8.313-18.75 16.516-37.5469 24.61-56.3906 3.718-8.25 6.578-16.75 8.578-25.5.812-3.1563 1.015-6.3125.609-9.46875-.406-1.84375-1.609-2.79687-3.609-2.85937-2-.09376-4.422.42187-7.266 1.54687-2.844 1.09375-5.797 2.4375-8.859 4.03125-3.063 1.5625-5.828 3.1094-8.297 4.6406-2.469 1.5-4.297 2.625-5.485 3.375-.343.1875-.578.3281-.703.4219-32.25 20.0625-61.125 44.1562-86.625 72.2812-2.812 3.0938-5.5 6.2969-8.062 9.6098-2.594 3.281-4.969 6.75-7.125 10.406-1.625 2.75-2.922 5.625-3.891 8.625-1.187 4.625-.844 8.156 1.032 10.594 1.843 2.437 4.624 4.078 8.343 4.922 3.719.812 7.766 1.093 12.141.843 4.344-.25 8.437-.687 12.281-1.312 3.875-.657 6.875-1.297 9-1.922 2.531-.625 5.078-1.219 7.641-1.781 2.187-.407 2.797-.266 1.828.422-.969.687-3.063 1.64-6.281 2.859-3.219 1.187-7.094 2.359-11.625 3.515-4.5 1.126-9.157 1.938-13.969 2.438-4.813.469-9.328.359-13.547-.328-4.219-.688-7.656-2.25-10.312-4.688-2.657-2.468-4.016-6.109-4.079-10.922v-.374c.157-3.032.875-5.922 2.157-8.672 2.156-4.969 4.906-9.578 8.25-13.828 3.531-4.5942 7.218-9.0318 11.062-13.313 24.75-27.1562 52.625-50.5938 83.625-70.3125 3.656-2.3437 7.906-4.9062 12.75-7.6875 4.844-2.78125 9.828-5.10938 14.953-6.98438C418.281.984375 423.078.125 427.547.3125c4.937.28125 7.641 2.85938 8.109 7.73438.219 1.81249.203 3.57812-.047 5.29692-.218 1.7187-.547 3.4375-.984 5.1562-.063.25-.125.5156-.187.7969-.907 4.125-2.079 8.1562-3.516 12.0937-1.438 3.9063-2.984 7.7813-4.641 11.625-14.093 33.5-28.843 66.6724-44.25 99.5154-.469.969-.906 1.969-1.312 3-.688 1.594-.625 2.703.187 3.328.844.594 2.235.891 4.172.891 1.969 0 4.266-.094 6.891-.281.406 0 .812-.047 1.219-.141 1.718-.062 3.468-.156 5.25-.281 7.906-.625 15.75-1.047 23.531-1.266 1.375 0 2.328-.578 2.859-1.734.625-1.25 1.219-2.516 1.781-3.797 10.157-22.344 20.719-44.4844 31.688-66.4219 10.969-21.9375 22.094-43.7969 33.375-65.5781.125-.28125.266-.5625.422-.84375.406-1.03125 1.015-1.89063 1.828-2.57813.625-.34375 1.344-.51562 2.156-.51562.844 0 1.547.1875 2.11.5625.593.375.718 1.04688.374 2.01562-.062.21875-.156.45313-.281.70313-.906 2.34375-1.906 4.65625-3 6.93745-5.562 11.1876-11.172 22.3594-16.828 33.5157C476.484 54.0156 474.5 58 472.5 62c-13.125 26.1875-25.984 52.516-38.578 78.984-.219.5-.453.985-.703 1.454-.281.562-.531 1.109-.75 1.64-.75 1.656-.797 2.734-.141 3.234.656.469 1.703.626 3.141.469 15.062-.812 30.406-.984 46.031-.515 15.656.437 31.188 1.062 46.594 1.875 4.718.218 9.422.453 14.109.703h.516c.625 0 1.234.047 1.828.14.625.125 1.187.391 1.687.797zm-79.5-12.89h-.14c-4.532-.063-7.516-1.063-8.953-3-1.438-1.969-1.375-4.579.187-7.829 1.313-2.468 2.969-4.624 4.969-6.468.687-.625 1.391-1.125 2.109-1.5.719-.375 1.532-.563 2.438-.563.531-.093 1.14 0 1.828.281.219.063.437.141.656.235.531-.094 1.047-.266 1.547-.516.125-.093.297-.172.516-.234 1.031-.406 2.125-.578 3.281-.516h1.453c1.844.281 3.234 1.063 4.172 2.344.937 1.25 1.265 2.781.984 4.594-.156 1.093-.5 2.125-1.031 3.093-3.594 6.438-8.172 9.797-13.734 10.079h-.282zm7.407-16.782c-2.469-.093-4.672.625-6.61 2.157-1.906 1.5-3.328 3.234-4.265 5.203-.938 1.969-1.204 3.593-.797 4.875.437 1.25 1.75 1.594 3.937 1.031 2.469-.75 4.641-2.156 6.516-4.219 1.906-2.062 3.062-4.015 3.469-5.859.437-1.875-.313-2.938-2.25-3.188zm32.578-.89c-.281 2.156-1.297 3.562-3.047 4.219-1.75.656-2.328-.204-1.734-2.579.624-2.375-.438-2.968-3.188-1.781-2.75 1.156-5.016 2.625-6.797 4.406-2.75 2.813-5.187 5.844-7.312 9.094-.219.281-.391.516-.516.703-.625.907-1.25 1.766-1.875 2.578-.406.563-.875.922-1.406 1.079-.563.124-1.125.14-1.688.046-.531-.062-.937-.265-1.218-.609-.282-.344-.313-.75-.094-1.219.344-.844.75-1.703 1.218-2.578 2.813-5.219 5.672-10.453 8.579-15.703.062-.063.093-.125.093-.187.407-.813.891-1.563 1.454-2.25.624-.688 1.343-.969 2.156-.844.812.125 1.359.609 1.64 1.453.344 1.094.641 1.719.891 1.875.25.125.813.016 1.687-.328 1.876-.688 3.704-1.172 5.485-1.453 1.781-.282 3.234-.203 4.359.234 1.156.406 1.594 1.687 1.313 3.844zm19.547 9.047c-1.657 1.968-3.625 3.781-5.907 5.437-2.281 1.656-4.859 2.781-7.734 3.375-2.875.563-5.109.344-6.703-.656-1.594-1-1.906-3.219-.938-6.656 1.25-3.563 2.969-6.954 5.157-10.172.5-.688 1.218-1.172 2.156-1.453.687-.157 1.281-.032 1.781.375.531.375.734.859.61 1.453-.469 1.125-.985 2.25-1.547 3.375-.563 1.125-.938 1.859-1.125 2.203-1.094 2-1.86 4.094-2.297 6.281 0 1.25 1.672 1.328 5.015.234 3.344-1.093 6.594-3.093 9.75-6 3.157-2.937 4.657-3.796 4.5-2.578-.125 1.188-1.031 2.782-2.718 4.782zm-8.157-15.704c-.156.126-.484.282-.984.469-.469.157-.984.281-1.547.375-.531.063-.953-.031-1.266-.281-.312-.25-.328-.75-.046-1.5.5-1.313 1.015-2.453 1.546-3.422.563-1 1.282-2.094 2.157-3.281.562-.531 1.172-.813 1.828-.844.656-.062 1.203.11 1.641.516.437.375.562.906.374 1.594-.687 2.468-1.921 4.593-3.703 6.374zm14.813 16.688c-1.156.844-1.734 1.438-1.734 1.781 0 .344.374.547 1.124.61.75.062 1.579.093 2.485.093.281-.062.515-.093.703-.093 2.969.062 5.828.468 8.578 1.218.813.282 1.61.672 2.391 1.172.062.063.093.094.093.094.126.063.219.203.282.422.094.187.094.359 0 .515 0 .126-.094.25-.282.376-.156.093-.296.171-.421.234-.563.125-1.11.156-1.641.094-5.781-.688-11.562-1-17.344-.938h-3.375c-.343 0-.734.031-1.172.094-.812.094-1.562.078-2.25-.047-.687-.156-1.14-.687-1.359-1.594-.125-.687.062-1.187.562-1.5.469-.312 1.047-.562 1.735-.75.469-.156.906-.359 1.312-.609 4.907-2.75 9.625-5.781 14.157-9.094 1.843-1.312 3.453-2.828 4.828-4.547.406-.531.484-1.015.234-1.453-.219-.469-.672-.734-1.359-.797-2.125-.219-4.188-.047-6.188.516h-.093c-1.438.406-2.922.781-4.454 1.125-.75.125-1.406-.11-1.968-.703-.188-.344-.188-.703 0-1.078.218-.407.64-.735 1.265-.985 4.469-1.875 9.141-2.531 14.016-1.968 1.156.187 2.25.531 3.281 1.031 2 1.031 2.484 2.5 1.453 4.406-1.156 2.063-2.765 3.828-4.828 5.297-2.687 1.969-5.437 3.922-8.25 5.859-.625.407-1.219.813-1.781 1.219zm23.906 7.641h-.14c-4.532-.063-7.516-1.063-8.954-3-1.437-1.969-1.375-4.579.188-7.829 1.312-2.468 2.969-4.624 4.969-6.468.687-.625 1.39-1.125 2.109-1.5.719-.375 1.531-.563 2.438-.563.531-.093 1.14 0 1.828.281.218.063.437.141.656.235.531-.094 1.047-.266 1.547-.516.125-.093.297-.172.515-.234 1.032-.406 2.125-.578 3.282-.516h1.453c1.843.281 3.234 1.063 4.172 2.344.937 1.25 1.265 2.781.984 4.594-.156 1.093-.5 2.125-1.031 3.093-3.594 6.438-8.172 9.797-13.735 10.079h-.281zm7.406-16.782c-2.468-.093-4.672.625-6.609 2.157-1.906 1.5-3.328 3.234-4.266 5.203-.937 1.969-1.203 3.593-.797 4.875.438 1.25 1.75 1.594 3.938 1.031 2.469-.75 4.641-2.156 6.516-4.219 1.906-2.062 3.062-4.015 3.468-5.859.438-1.875-.312-2.938-2.25-3.188zm47.204 4.5c.5.625-.126 1.766-1.876 3.422-1.75 1.657-3.609 3.047-5.578 4.172-1.968 1.125-4.25 2.25-6.843 3.375-1.719.75-3.547 1-5.485.75-1.937-.25-2.906-1.422-2.906-3.516 0-2.093.484-4.171 1.453-6.234.969-2.125 1.172-3.219.609-3.281-.531-.063-1.656.453-3.374 1.547-4.469 2.937-8.626 6.297-12.469 10.078-1.031 1.25-2.344 1.937-3.938 2.062-.812 0-1.437-.25-1.875-.75-.468-.531-.531-1.093-.187-1.687 2.75-5.094 5.531-10.125 8.343-15.094.626-1.031 1.563-1.672 2.813-1.922.531-.093 1.016.078 1.453.516.469.406.703.875.703 1.406-.062.5-.265 1.094-.609 1.781-.156.407-.313.797-.469 1.172-.125.375-.172.688-.141.938.063.25.266.328.61.234.469-.25.937-.516 1.406-.797 1.188-.687 2.328-1.343 3.422-1.969.969-.562 1.984-1.062 3.047-1.5 1.062-.437 2.172-.734 3.328-.89 1.875-.125 3.203.297 3.984 1.266.782.968.875 2.312.282 4.031-.625 1.562-1.282 3.109-1.969 4.64-.844 1.438-.984 2.532-.422 3.282s3.172-.11 7.828-2.579l3.516-2.062c3.312-2.125 5.094-2.922 5.344-2.391z" fill="#fff"/>
</svg>