<svg xmlns="http://www.w3.org/2000/svg" width="460" height="168" fill="none">
    <path fill="#fff" d="M250.91 135.379c.094.047.152.152.176.316a1.5 1.5 0 0 1 .07.387c-.07.164-.152.293-.246.387a1.662 1.662 0 0 1-.316.246 2.858 2.858 0 0 1-1.371.211c-.469 0-.914-.024-1.336-.071a2.575 2.575 0 0 0-.528-.07 290.593 290.593 0 0 1-6.504-.703 1911.274 1911.274 0 0 0-15.082-1.477 2001.516 2001.516 0 0 0-29.144-2.39 1320.636 1320.636 0 0 0-40.922-2.18c-9.797-.351-19.594-.609-29.391-.773a75.053 75.053 0 0 0-3.269-.071c-1.125 0-2.227-.023-3.305-.07a810.636 810.636 0 0 0-19.969-.246h-.14c-3.914 0-7.805.082-11.672.246-1.453.047-2.871.07-4.254.07-1.758.047-3.539.387-5.344 1.02-13.523 4.734-27.187 8.215-40.992 10.441a234.539 234.539 0 0 1-11.918 1.653 106.665 106.665 0 0 1-15.785.597 20.36 20.36 0 0 1-5.625-.773 9.547 9.547 0 0 1-2.04-.703 3.996 3.996 0 0 1-1.44-.914c-.375-.375-.54-.903-.493-1.582a3.215 3.215 0 0 1 .844-1.688 6.403 6.403 0 0 1 1.582-1.16 17.548 17.548 0 0 1 5.695-2.074 56.967 56.967 0 0 1 3.024-.703 135.132 135.132 0 0 1 10.125-1.934 401.008 401.008 0 0 1 40.71-3.937 93.45 93.45 0 0 1 2.391-.176c4.172-.211 8.344-.387 12.516-.528 1.5-.046 3-.328 4.5-.843a192.25 192.25 0 0 0 15.223-6.434 140.286 140.286 0 0 0 14.695-8.051 59.667 59.667 0 0 0 11.004-8.578 23.469 23.469 0 0 0 4.641-6.117c1.593-3.305 1.3-6.164-.879-8.578-1.547-1.594-3.375-2.836-5.485-3.727a50.666 50.666 0 0 0-8.718-3.093c-3-.774-6.047-1.442-9.141-2.004a214.378 214.378 0 0 0-26.824-2.637h-2.04c-.773.117-1.359.586-1.757 1.406-.211.352-.399.692-.563 1.02-.398.773-.808 1.547-1.23 2.32l-9.668 19.547a1197.97 1197.97 0 0 1-8.121 16.488 1.557 1.557 0 0 1-.211.528 17.183 17.183 0 0 1-1.09 1.933c-.469.516-1.008.727-1.617.633a2.842 2.842 0 0 1-1.09-.07c-.633-.328-.844-.821-.633-1.477a53.108 53.108 0 0 1 1.863-4.254 9104.248 9104.248 0 0 1 12.235-25.91 859.308 859.308 0 0 0 3.937-8.191c.094-.258.2-.493.317-.704.304-.632.586-1.253.843-1.863.352-.937.07-1.43-.843-1.476-.47-.047-.938-.07-1.407-.07l-1.792-.141h-.387a13.227 13.227 0 0 1-2.004-.352c-.61-.187-.973-.668-1.09-1.441 0-.867.293-1.512.879-1.934a8.487 8.487 0 0 1 2.004-1.02c.258-.093.492-.163.703-.21a66.71 66.71 0 0 1 5.941-2.18 3.08 3.08 0 0 1 .704-.21c1.546-.47 2.707-1.454 3.48-2.954a5174.435 5174.435 0 0 1 10.371-19.582 684.245 684.245 0 0 1 3.621-6.856c.164-.328.316-.644.457-.949.305-.656.668-1.3 1.09-1.933.516-.774 1.184-1.078 2.004-.914a2.828 2.828 0 0 1 1.09.07c.773.351 1.008.95.703 1.793 0 .047-.024.07-.07.07a38.873 38.873 0 0 1-2.11 5.098A829.456 829.456 0 0 1 84.305 54.8a108.89 108.89 0 0 1-2.075 4.008c-.374.68-.738 1.347-1.09 2.004a161.428 161.428 0 0 0-1.792 3.48l-.07.105a4.578 4.578 0 0 0-.247.598c-.047.211.059.363.317.457.164.07.328.129.492.176l.14-.07c.305-.07.645-.153 1.02-.246l.281-.141a1677.461 1677.461 0 0 0 33.856-11.074 741.088 741.088 0 0 0 33.609-12.305c.258-.094.492-.164.703-.211 3.399-1.406 6.785-2.813 10.16-4.219a183.581 183.581 0 0 0 10.02-4.605 42.234 42.234 0 0 0 6.961-4.254c4.64-3.774 4.84-7.149.598-10.125a23.292 23.292 0 0 0-6.54-3.094 41.5 41.5 0 0 0-7.207-1.547 119.136 119.136 0 0 0-17.859-1.336h-.105c-5.813.047-11.684.329-17.614.844-13.148 1.149-26.273 3.375-39.375 6.68-12.07 2.976-23.906 7.043-35.508 12.199a81.677 81.677 0 0 0-8.894 4.57c-.82.516-1.64.985-2.461 1.407-.469.187-.914.234-1.336.14-.562.094-1.02-.058-1.371-.457-.258-.375-.27-.715-.035-1.02.234-.304.527-.562.879-.773a43.915 43.915 0 0 1 7.734-4.394c.047 0 .094-.024.14-.07 10.946-5.157 22.137-9.282 33.575-12.376 16.5-4.547 33.082-7.383 49.746-8.508a212.216 212.216 0 0 1 15.398-.562c5.555-.047 11.063.234 16.524.844 5.156.515 10.055 1.71 14.695 3.586 2.18.82 4.067 2.05 5.66 3.691 1.336 1.453 1.922 3.059 1.758 4.817-.14 1.734-.984 3.457-2.531 5.168a27.73 27.73 0 0 1-6.574 4.886 102.997 102.997 0 0 1-8.965 4.465 317.801 317.801 0 0 1-9.211 3.867 7.745 7.745 0 0 1-.387.176 616.105 616.105 0 0 1-32.625 12.34 1466.882 1466.882 0 0 1-32.976 10.934c-1.852.609-3.704 1.23-5.555 1.863-2.578.867-5.156 1.71-7.734 2.531-1.125.258-2.028.879-2.707 1.863-.563.938-.809 1.664-.739 2.18.07.516.656.797 1.758.844 2.93.094 5.86.246 8.79.457h.562c5.554.351 11.039.949 16.453 1.793 5.414.82 10.699 2.027 15.855 3.62a67.717 67.717 0 0 1 6.434 2.462 22.233 22.233 0 0 1 3.937 2.32c5.321 4.125 5.707 9.317 1.161 15.574a33.523 33.523 0 0 1-5.168 5.625 89.173 89.173 0 0 1-15.469 10.688 208.833 208.833 0 0 1-14.485 7.277c-.562.188-1.148.445-1.757.774-.305.14-.645.293-1.02.457.305.468.586.75.844.843.258.094.55.118.879.071h.07c.867.047 1.711.07 2.531.07h.106c.562 0 1.125-.023 1.687-.07h7.735c15.304.047 30.539.386 45.703 1.019 16.5.563 32.929 1.571 49.289 3.024 5.203.445 10.406.902 15.609 1.371a2385.81 2385.81 0 0 1 18.809 1.617c3.656.375 7.289.82 10.898 1.336.867.094 1.77.199 2.707.316a7.494 7.494 0 0 1 2.004.598ZM69.082 73.574a.796.796 0 0 0 .281-.281c.118-.164.2-.293.246-.387 0-.117-.023-.199-.07-.246l-.246-.246-.07-.07c-.563.117-1.079.398-1.547.844a.471.471 0 0 0-.106.386c.024.117.118.176.282.176.398 0 .808-.059 1.23-.176Zm-3.867 57.727a.51.51 0 0 1 .316-.106 1.94 1.94 0 0 0 .598-.281c.21-.117.363-.305.457-.562-.094-.211-.188-.34-.281-.387h-.176a484.37 484.37 0 0 0-37.512 3.164 137.281 137.281 0 0 0-18.492 3.48c-.14.071-.293.129-.457.176a7.003 7.003 0 0 0-2.918 1.301c-.21.164-.352.34-.422.527-.047.211.059.399.317.563.515.211 1.066.386 1.652.527 1.992.375 4.02.563 6.082.563 1.758 0 3.516-.082 5.273-.246 15.258-1.29 30.446-4.196 45.563-8.719Zm91.371-36.07c.773-.774 1.418-1.208 1.934-1.301.515-.094.843-.012.984.246.164.258.07.61-.281 1.055a35.919 35.919 0 0 1-6.926 6.433c-2.555 1.805-5.192 2.848-7.91 3.129-2.696.281-4.325-1.195-4.887-4.43-.422-3.21 1.523-9.75 5.836-19.617 4.312-9.867 7.723-17.953 10.23-24.258a4.1 4.1 0 0 1 .95-1.476c.562-.563 1.23-.692 2.004-.387.257.117.515.305.773.563.258.257.34.714.246 1.37-11.086 26.298-16.453 40.594-16.101 42.891.351 2.297 1.828 2.871 4.429 1.723 2.625-1.172 4.641-2.356 6.047-3.55 1.43-1.22 2.32-2.016 2.672-2.391Zm20.602 3.269c-1.36 1.336-2.942 2.484-4.747 3.445-1.804.938-3.316 1.559-4.535 1.864a19.924 19.924 0 0 1-3.761.492c-2.063.094-3.961-.188-5.696-.844-2.836-1.148-3.82-3.34-2.953-6.574.82-2.79 2.484-4.969 4.992-6.54 2.508-1.57 5.098-2.331 7.77-2.284h.07c.68-.047 1.324 0 1.934.14 1.031.375 1.687.985 1.968 1.828.282.844.094 1.782-.562 2.813-1.5 2.273-3.539 3.539-6.117 3.797a16.594 16.594 0 0 1-4.957-.246.943.943 0 0 0-.809.246 1.277 1.277 0 0 0-.422.773c-.468 2.016.153 3.305 1.864 3.867 2.109.727 4.3.727 6.574 0 2.625-.82 5.121-2.367 7.488-4.64 2.367-2.274 3.727-3.328 4.078-3.164.375.14.492.574.352 1.3-.328 1.149-1.172 2.391-2.531 3.727Zm-14.977-5.66a1.652 1.652 0 0 0-.316.562c-.047.188.035.364.246.528.82.468 1.711.644 2.671.527.961-.14 1.77-.504 2.426-1.09.68-.61.973-1.348.879-2.215-.07-.304-.234-.492-.492-.562a1.462 1.462 0 0 0-.773-.07c-1.735.304-3.282 1.078-4.641 2.32Zm16.277 12.937c-2.226 0-3.34-1.16-3.34-3.48 0-2.836 1.84-7.84 5.52-15.012.141-.304.398-.457.773-.457 1.477 0 2.215.586 2.215 1.758 0 .422-.129.937-.386 1.547-.094.164-1.325 3.258-3.692 9.281-.375.984-.562 1.711-.562 2.18 0 .515.234.773.703.773 1.711 0 6.199-4.254 13.465-12.761.937-1.149 1.863-1.723 2.777-1.723 1.336 0 2.004.492 2.004 1.476 0 .375-.41 1.793-1.231 4.254-1.125 3.352-1.687 5.285-1.687 5.801 0 .774.258 1.16.773 1.16 1.289 0 5.051-2.297 11.285-6.89.352-.305.657-.457.915-.457.585 0 .878.492.878 1.476a.857.857 0 0 1-.246.633c-3.304 2.836-6.117 4.992-8.437 6.469-2.11 1.359-3.985 2.039-5.625 2.039h-.492c-2.414-.516-3.621-2.403-3.621-5.66-2.579 2.273-4.723 4.113-6.434 5.519-1.688 1.383-3.539 2.074-5.555 2.074Zm231.188 7.559a.885.885 0 0 1 .281.246.702.702 0 0 1 .176.457c0 .258-.082.457-.246.598a.668.668 0 0 1-.528.246l-.703-.071a.542.542 0 0 1-.211.071 898.174 898.174 0 0 0-38.461-1.336 2578.568 2578.568 0 0 0-38.214-.141h-6.258c-1.289 0-2.332.246-3.129.739-.797.492-1.477 1.359-2.039 2.601a1377.015 1377.015 0 0 1-10.125 22.5 2762.646 2762.646 0 0 0-5.59 12.234 455.808 455.808 0 0 0-3.938 9.036c-.679 1.5-1.324 3-1.933 4.5-.047.14-.129.293-.246.457a3.07 3.07 0 0 1-.528 1.16c-.422.351-.972.551-1.652.597-.656.071-1.23-.058-1.723-.386-.492-.305-.632-.844-.421-1.617a48.581 48.581 0 0 1 1.546-3.762 7139.423 7139.423 0 0 1 14.942-33.891c1.172-2.625 2.355-5.285 3.551-7.98.164-.399.339-.832.527-1.301.422-.938.844-1.863 1.266-2.777.398-1.032.14-1.606-.774-1.723-6.562.164-13.09.457-19.582.879-3.398.187-6.832.363-10.301.527-1.945.047-3.304.973-4.078 2.778a645.574 645.574 0 0 1-10.617 21.832 1349.231 1349.231 0 0 1-6.574 12.832l-2.461 4.64c-.469.985-.985 1.91-1.547 2.778-.563.773-1.324 1.242-2.285 1.406-.961.187-1.805.14-2.531-.141-.704-.281-1.032-.726-.985-1.336a18.098 18.098 0 0 1 1.09-3.41 411.184 411.184 0 0 1 12.129-27.984l4.641-9.774c.421-1.031.14-1.617-.844-1.758-.985-.117-2.426-.07-4.324.141h-.247c-3.304.305-6.703.762-10.195 1.371-3.469.633-5.742 1.102-6.82 1.406-1.078.258-2.18.387-3.305.387a.334.334 0 0 1-.246.106.623.623 0 0 1-.316-.106l-.598.106c-.211 0-.422-.082-.633-.246a.768.768 0 0 1-.316-.633c.047-.141.129-.317.246-.528.141-.211.293-.363.457-.457a62.226 62.226 0 0 1 12.621-3.023 347.79 347.79 0 0 1 14.695-1.863c1.641-.047 2.801-.797 3.481-2.25 1.429-2.93 2.918-5.86 4.465-8.789a630.798 630.798 0 0 1 5.66-10.371 296.77 296.77 0 0 1 2.004-3.868c.093-.117.175-.246.246-.386a6.2 6.2 0 0 1 .668-1.16 23.254 23.254 0 0 0 3.234-4.887 62.448 62.448 0 0 0 2.426-5.414c.351-.774.691-1.547 1.019-2.32a3957.675 3957.675 0 0 0 18.457-42.294 101.367 101.367 0 0 0 6.434-19.125c.609-2.367.762-4.734.457-7.101-.305-1.383-1.207-2.098-2.707-2.145-1.5-.07-3.316.317-5.449 1.16a64.964 64.964 0 0 0-6.645 3.024 85.777 85.777 0 0 0-6.222 3.48 307.682 307.682 0 0 0-4.114 2.532 5.09 5.09 0 0 0-.527.316c-24.187 15.047-45.844 33.117-64.969 54.21a118.66 118.66 0 0 0-6.047 7.208 69.5 69.5 0 0 0-5.343 7.805 31.982 31.982 0 0 0-2.918 6.468c-.891 3.47-.633 6.118.773 7.946 1.383 1.828 3.469 3.058 6.258 3.691 2.789.609 5.824.82 9.105.633 3.258-.188 6.329-.516 9.211-.984 2.907-.493 5.157-.973 6.75-1.442 1.899-.469 3.809-.914 5.731-1.336 1.64-.305 2.097-.199 1.371.317-.727.515-2.297 1.23-4.711 2.144-2.414.891-5.32 1.77-8.719 2.637a75.141 75.141 0 0 1-10.476 1.828c-3.61.352-6.996.27-10.161-.246-3.164-.516-5.742-1.688-7.734-3.516-1.992-1.851-3.012-4.582-3.058-8.191v-.281a17.373 17.373 0 0 1 1.617-6.504 46.879 46.879 0 0 1 6.187-10.371 170.438 170.438 0 0 1 8.297-9.985 308.565 308.565 0 0 1 62.719-52.734c2.742-1.758 5.93-3.68 9.562-5.766a72.56 72.56 0 0 1 11.215-5.238C313.711.988 317.309.344 320.66.484c3.703.211 5.731 2.145 6.082 5.801.164 1.36.153 2.684-.035 3.973a32.101 32.101 0 0 1-.738 3.867c-.047.188-.094.387-.141.598a70.496 70.496 0 0 1-2.637 9.07 173.132 173.132 0 0 1-3.48 8.719 2021.704 2021.704 0 0 1-33.188 74.636 33.194 33.194 0 0 0-.984 2.25c-.516 1.196-.469 2.028.141 2.497.632.445 1.675.667 3.129.667 1.476 0 3.199-.07 5.168-.21.304 0 .609-.036.914-.106 1.289-.047 2.601-.117 3.937-.211a347.71 347.71 0 0 1 17.649-.949c1.031 0 1.746-.434 2.144-1.301.469-.937.914-1.887 1.336-2.847a1489.219 1489.219 0 0 1 23.766-49.817 3866.046 3866.046 0 0 1 25.031-49.184c.094-.21.199-.421.316-.632a4.79 4.79 0 0 1 1.371-1.934c.469-.258 1.008-.387 1.618-.387.632 0 1.16.141 1.582.422.445.282.539.785.281 1.512-.047.164-.117.34-.211.527a72.836 72.836 0 0 1-2.25 5.203c-4.172 8.391-8.379 16.77-12.621 25.137a3306.76 3306.76 0 0 1-4.465 8.965 3218.912 3218.912 0 0 0-28.934 59.238c-.164.375-.339.739-.527 1.09a18.38 18.38 0 0 0-.562 1.231c-.563 1.242-.598 2.05-.106 2.425.492.352 1.277.469 2.356.352a412.024 412.024 0 0 1 34.523-.387c11.742.328 23.391.797 34.945 1.406 3.539.165 7.067.34 10.582.528h.387c.469 0 .926.035 1.371.105.469.094.891.293 1.266.598Zm-59.625-9.668h-.106c-3.398-.047-5.636-.797-6.715-2.25-1.078-1.477-1.031-3.434.141-5.871a18.086 18.086 0 0 1 3.727-4.852 7.56 7.56 0 0 1 1.582-1.125c.539-.28 1.148-.422 1.828-.422.398-.07.855 0 1.371.211.164.047.328.106.492.176.399-.07.785-.2 1.16-.387.094-.07.223-.129.387-.175a5.784 5.784 0 0 1 2.461-.387h1.09c1.383.21 2.426.797 3.129 1.758.703.937.949 2.086.738 3.445a6.767 6.767 0 0 1-.774 2.32c-2.695 4.829-6.128 7.348-10.3 7.559h-.211Zm5.554-12.586c-1.851-.07-3.503.469-4.957 1.617-1.429 1.125-2.496 2.426-3.199 3.903-.703 1.476-.902 2.695-.597 3.656.328.937 1.312 1.195 2.953.773 1.851-.562 3.48-1.617 4.886-3.164 1.43-1.547 2.297-3.011 2.602-4.394.328-1.407-.234-2.204-1.688-2.391Zm24.434-.668c-.211 1.617-.973 2.672-2.285 3.164-1.313.492-1.746-.152-1.301-1.934.469-1.78-.328-2.226-2.391-1.335-2.062.867-3.761 1.968-5.097 3.304a44.8 44.8 0 0 0-5.485 6.821 9.298 9.298 0 0 0-.386.527 47.22 47.22 0 0 1-1.406 1.934c-.305.421-.657.691-1.055.808a3.273 3.273 0 0 1-1.266.035c-.398-.047-.703-.199-.914-.457-.211-.258-.234-.562-.07-.914.258-.633.562-1.277.914-1.933 2.109-3.915 4.254-7.84 6.433-11.778.047-.047.071-.094.071-.14a8.999 8.999 0 0 1 1.09-1.688c.468-.516 1.007-.726 1.617-.633.609.094 1.019.457 1.23 1.09.258.82.481 1.29.668 1.406.188.094.61.012 1.266-.246a21.855 21.855 0 0 1 4.113-1.09c1.336-.21 2.426-.152 3.27.176.867.305 1.195 1.266.984 2.883Zm14.66 6.785c-1.242 1.477-2.719 2.836-4.429 4.078-1.711 1.243-3.645 2.086-5.801 2.532-2.157.421-3.832.257-5.028-.493-1.195-.75-1.429-2.414-.703-4.992a32.97 32.97 0 0 1 3.867-7.629c.375-.515.915-.879 1.618-1.09.515-.117.961-.023 1.336.282.398.281.55.644.457 1.09a40.637 40.637 0 0 1-1.161 2.53 66.952 66.952 0 0 1-.843 1.653 16.499 16.499 0 0 0-1.723 4.711c0 .938 1.254.996 3.762.176 2.508-.82 4.945-2.32 7.312-4.5 2.367-2.203 3.492-2.848 3.375-1.934-.093.89-.773 2.086-2.039 3.586Zm-6.117-11.777c-.117.094-.363.21-.738.351a7.682 7.682 0 0 1-1.16.282c-.399.047-.715-.024-.95-.211-.234-.188-.246-.563-.035-1.125.375-.985.762-1.84 1.16-2.567a24.2 24.2 0 0 1 1.618-2.46c.421-.399.878-.61 1.371-.633.492-.047.902.082 1.23.386.328.282.422.68.281 1.196a10.7 10.7 0 0 1-2.777 4.78Zm11.109 12.516c-.867.632-1.3 1.078-1.3 1.335 0 .258.281.41.843.458.563.046 1.184.07 1.864.07a2.51 2.51 0 0 1 .527-.07c2.227.046 4.371.351 6.434.914a8.42 8.42 0 0 1 1.793.878l.07.071c.094.047.164.152.211.316.07.141.07.27 0 .387 0 .094-.071.187-.211.281a4.88 4.88 0 0 1-.317.176 3.653 3.653 0 0 1-1.23.07c-4.336-.515-8.672-.75-13.008-.703h-2.531c-.258 0-.551.024-.879.07a5.708 5.708 0 0 1-1.687-.035c-.516-.117-.856-.515-1.02-1.195-.094-.516.047-.891.422-1.125.351-.234.785-.422 1.301-.563.351-.117.679-.27.984-.457a104.708 104.708 0 0 0 10.617-6.82 17.892 17.892 0 0 0 3.621-3.41c.305-.398.364-.762.176-1.09-.164-.352-.504-.55-1.019-.598a12.329 12.329 0 0 0-4.641.387h-.07a63.525 63.525 0 0 1-3.34.844c-.563.094-1.055-.082-1.477-.527-.14-.258-.14-.528 0-.809.164-.305.481-.55.949-.738 3.352-1.407 6.856-1.899 10.512-1.477a8.86 8.86 0 0 1 2.461.774c1.5.773 1.863 1.875 1.09 3.304-.867 1.547-2.074 2.871-3.621 3.973a260.933 260.933 0 0 1-6.188 4.394c-.468.305-.914.61-1.336.915Zm17.93 5.73h-.105c-3.399-.047-5.637-.797-6.715-2.25-1.078-1.477-1.031-3.434.14-5.871a18.107 18.107 0 0 1 3.727-4.852 7.587 7.587 0 0 1 1.582-1.125c.539-.28 1.148-.422 1.828-.422.399-.07.856 0 1.371.211.164.047.328.106.492.176.399-.07.786-.2 1.161-.387.093-.07.222-.129.386-.175a5.787 5.787 0 0 1 2.461-.387h1.09c1.383.21 2.426.797 3.129 1.758.703.937.949 2.086.738 3.445a6.786 6.786 0 0 1-.773 2.32c-2.695 4.829-6.129 7.348-10.301 7.559h-.211Zm5.555-12.586c-1.852-.07-3.504.469-4.957 1.617-1.43 1.125-2.496 2.426-3.199 3.903-.704 1.476-.903 2.695-.598 3.656.328.937 1.312 1.195 2.953.773 1.852-.562 3.48-1.617 4.887-3.164 1.429-1.547 2.297-3.011 2.601-4.394.328-1.407-.234-2.204-1.687-2.391Zm35.402 3.375c.375.469-.094 1.324-1.406 2.566a21.86 21.86 0 0 1-4.184 3.129c-1.476.844-3.187 1.688-5.133 2.532-1.289.562-2.66.75-4.113.562-1.453-.187-2.18-1.066-2.18-2.637 0-1.57.364-3.128 1.09-4.675.727-1.594.879-2.415.457-2.461-.398-.047-1.242.34-2.531 1.16a61.406 61.406 0 0 0-9.351 7.558c-.774.938-1.758 1.454-2.954 1.547-.609 0-1.078-.187-1.406-.562-.351-.399-.398-.821-.14-1.266a645.342 645.342 0 0 1 6.257-11.32c.469-.774 1.172-1.254 2.11-1.442.398-.07.761.059 1.09.387.351.305.527.656.527 1.055-.047.375-.199.82-.457 1.336-.117.305-.234.597-.352.879-.093.28-.129.515-.105.703.047.187.199.246.457.176.351-.188.703-.387 1.055-.598.89-.516 1.746-1.008 2.566-1.477a18.811 18.811 0 0 1 2.285-1.125 10.07 10.07 0 0 1 2.496-.668c1.406-.093 2.403.223 2.989.95.585.726.656 1.734.21 3.023a89.345 89.345 0 0 1-1.476 3.48c-.633 1.079-.738 1.899-.317 2.462.422.562 2.379-.083 5.872-1.934l2.636-1.547c2.485-1.594 3.821-2.191 4.008-1.793Z"/>
</svg>