<svg width="129" height="62" viewBox="0 0 129 62" fill="none" xmlns="http://www.w3.org/2000/svg"><rect y="4" width="129" height="58" rx="10" fill="#000" fill-opacity=".15"/><rect x=".5" y="4.5" width="128" height="57" rx="9.5" stroke="#fff" stroke-opacity=".8"/><path d="M58.0576 27.2744c-.0788.0143-.1647.0143-.2578 0-.0931-.0143-.179-.0537-.2578-.1182-.0931-.093-.1325-.179-.1182-.2578.0144-.0787.0466-.1504.0967-.2148.752-1.2103 1.4037-2.4779 1.9551-3.8027.3509-.8164.6588-1.6579.9238-2.5245.1719-.5371.1862-1.1136.043-1.7294-.1361-.6589-.53-1.1244-1.1817-1.3965-.5013-.1862-1.0133-.2865-1.5361-.3008h-.2793c-1.1029.043-2.1735.2005-3.2119.4726-1.7975.4369-3.5378.9812-5.2207 1.6329-1.6758.6445-3.3158 1.3499-4.9199 2.1162-7.0397 3.4231-13.3418 7.7487-18.9063 12.9765-1.4036 1.2604-2.6318 2.6713-3.6845 4.2325-.3653.5514-.6875 1.135-.9668 1.7509-.1576.3438-.2686.7126-.3331 1.1065-.2363 1.2747.3152 2.2272 1.6543 2.8574 1.1316.5228 2.281.8164 3.4483.8809.9167.0787 1.8083.1181 2.6748.1181.4082 0 .8021-.0179 1.1816-.0537 5.5144-.0573 10.7207-.7734 15.6192-2.1484.0787-.0287.1575-.0502.2363-.0645.3294-.1146.6768-.2041 1.042-.2685.0931-.0144.2471-.0287.4619-.043.222-.0143.4297 0 .6231.043.2005.0358.3258.1253.3759.2685.0144.0788 0 .1397-.0429.1826-.0358.0358-.0931.0609-.1719.0752-.3008.0788-.598.1576-.8916.2364-.888.2363-1.7725.4655-2.6533.6875-4.9629 1.2747-10.1156 1.8942-15.458 1.8584-1.1029 0-2.2058-.0215-3.3086-.0645-1.239-.0501-2.4815-.3115-3.7276-.7842-2.4778-.9596-3.3444-2.5423-2.5996-4.748.3008-.8809.7269-1.6937 1.2783-2.4385.7663-1.1029 1.6149-2.127 2.5459-3.0723s1.9014-1.8584 2.9112-2.7392c4.5045-3.9675 9.4603-7.3763 14.8672-10.2266 1.6543-.8665 3.3372-1.6722 5.0488-2.417 1.7187-.7519 3.4912-1.4144 5.3174-1.9873 1.5325-.487 3.108-.8558 4.7265-1.1064.6517-.0931 1.2998-.1397 1.9444-.1397.4225 0 .8486.0143 1.2783.043.5013.0501 1.0026.154 1.5039.3115 1.3607.487 2.0553 1.3858 2.084 2.6963 0 .5801-.0788 1.1387-.2364 1.6758-.3294 1.0384-.734 2.0374-1.2138 2.9971-.4798.9596-.9955 1.8977-1.5469 2.8144-.1575.3151-.4118.5192-.7627.6123-.1074.0143-.2077.0143-.3008 0h-.0537zm-4.2861 10.1299c-.0645.4941-.2972.8164-.6983.9668-.401.1504-.5335-.0466-.3974-.5908.1432-.5443-.1003-.6804-.7305-.4082-.6302.2649-1.1494.6015-1.5576 1.0097-.6302.6446-1.1888 1.3392-1.6758 2.084-.0501.0645-.0895.1182-.1181.1612-.1433.2076-.2865.4046-.4297.5908-.0931.1289-.2006.2112-.3223.247-.1289.0287-.2578.0323-.3867.0108-.1218-.0143-.2149-.0609-.2793-.1397-.0645-.0787-.0716-.1718-.0215-.2793.0788-.1933.1719-.3903.2793-.5908.6445-1.1959 1.2998-2.3955 1.9658-3.5986.0143-.0143.0215-.0287.0215-.043.0931-.1862.2041-.3581.333-.5156.1432-.1576.3079-.222.4941-.1934.1862.0287.3116.1397.376.333.0788.2507.1468.3939.2041.4297.0573.0287.1862.0036.3867-.0752.4297-.1575.8487-.2685 1.2569-.333.4082-.0644.7412-.0465.999.0537.265.0931.3652.3868.3008.8809zm8.0029 1.1279c.1719.0931.1862.3259.043.6983-.2077.2721-.4297.5263-.666.7627-.2364.2363-.4942.4476-.7735.6338-.0215 0-.0322.0071-.0322.0214-.1862.1289-.3831.2399-.5908.333-1.7116.6159-2.5853.2543-2.6211-1.0849-.6947.6015-1.1602.9704-1.3965 1.1064-.5658.3366-1.1781.487-1.8369.4512-.487-.0286-.8164-.1755-.9883-.4404-.179-.2722-.1647-.6374.043-1.0957.3151-.7233.7627-1.3679 1.3428-1.9336.6803-.6302 1.4358-1.1351 2.2666-1.5147.444-.222.9095-.3079 1.3964-.2578.487.0287.7806.3044.8809.8272.043.1575.0036.2972-.1182.4189-.1575.1432-.3401.1755-.5478.0967-.0143 0-.0358-.0036-.0645-.0108-.0215-.0071-.0394-.0179-.0537-.0322-.2077-.2864-.4189-.4046-.6338-.3545-.2077.043-.4297.1361-.666.2793-1.1029.6446-1.9228 1.5433-2.4599 2.6963-.0287.0501-.0466.1074-.0538.1719-.0071.0573.0108.1038.0538.1396.1289.043.2721.0358.4296-.0214.1576-.0645.3151-.154.4727-.2686.1575-.1217.29-.222.3975-.3008.0143-.0215.0214-.0322.0214-.0322.5228-.4369 1.0349-.8845 1.5362-1.3428.222-.2363.4977-.3688.8271-.3974.4727 0 .6696.2112.5908.6337-.0429.1576-.0895.3151-.1396.4727-.1862.6803-.1934 1.0814-.0215 1.2031.1719.1146.4333.1146.7842 0 .3581-.1217.7126-.3473 1.0635-.6767.358-.3366.6588-.641.9023-.9131.2435-.2793.4476-.3688.6123-.2686zm.8057.6338c-.2793.709-.5765 1.418-.8916 2.127-.487 1.1315-1.0456 2.2343-1.6758 3.3086-.444.7519-.9847 1.2854-1.6221 1.6005-.6373.3152-1.3499.4655-2.1377.4512-.6803-.0143-1.2496-.2578-1.708-.7304-.0573-.0645-.0967-.1361-.1181-.2149-.0287-.0788-.0179-.1575.0322-.2363.0573-.0788.1361-.1218.2363-.1289.0931-.0072.179.0036.2578.0322.1074.0358.2184.0859.333.1504.0788.043.1576.0823.2364.1182.5514.2363 1.0849.2757 1.6005.1181.5085-.1575.9489-.512 1.3213-1.0635.3796-.5514.7126-1.1207.9991-1.708.0143-.0286.0286-.0501.0429-.0644.6302-1.2318 1.1817-2.485 1.6543-3.7598.0788-.2077.0895-.3545.0323-.4404-.0502-.086-.1791-.1432-.3868-.1719-.0931-.0215-.1862-.0322-.2793-.0322-.0787-.0143-.1575-.0215-.2363-.0215-.0931-.0143-.1719-.043-.2363-.0859-.0645-.0502-.0824-.1325-.0537-.2471.0215-.0931.0716-.1611.1504-.2041.0787-.0501.1647-.0824.2578-.0967h.0644c.2364-.0501.4727-.0823.709-.0967.222 0 .3867-.0537.4941-.1611.1146-.1146.2113-.2721.2901-.4727.444-1.2317.9095-2.4635 1.3965-3.6953.5156-1.3535 1.1279-2.6748 1.8369-3.9638.3008-.5873.6875-1.1065 1.1601-1.5577.2507-.222.5192-.3938.8057-.5156.2865-.1289.5944-.1719.9238-.1289.0645 0 .1218.0215.1719.0645.0573.0358.1003.0787.1289.1289.0501.1074.0394.1898-.0322.247-.0716.0573-.1468.1003-.2256.129-.3796.1575-.6839.3759-.9131.6552-.222.2722-.4225.5729-.6015.9024-.709 1.3248-1.3357 2.6712-1.8799 4.039-.5371 1.3607-1.042 2.7393-1.5147 4.1358.3151.179.6374.2685.9668.2685.1433.0143.2936.0358.4512.0645.0286.0143.068.0215.1182.0215.0787.0214.1575.0465.2363.0752.0286.0143.0573.0393.0859.0752.0358.0286.0466.0572.0323.0859 0 .0501-.018.0967-.0538.1396-.0286.0358-.0608.0609-.0966.0752-.3724.1146-.7484.1612-1.128.1397h-.3115c-.4583-.0143-.7663.2005-.9238.6445zm9.4209-.3545c-.9597 1.1315-1.9014 1.9658-2.8252 2.503-.9167.5371-1.9014.7161-2.9541.5371-1.0456-.1862-1.4753-.8916-1.2891-2.1162.1289-.6159.3044-1.2175.5264-1.8047.5514-1.3679 1.11-2.7286 1.6758-4.0821.1862-.4869.3831-.9775.5908-1.4716.0501-.1075.0967-.2149.1396-.3223.0788-.179.1576-.3617.2364-.5479.1145-.3151-.0108-.4798-.376-.4941h-.9238c-.1075.0143-.2185.0286-.333.043-.1862.0143-.3724.0214-.5586.0214-.1791 0-.3474-.0465-.5049-.1396-.043-.0143-.0788-.0394-.1074-.0752-.0215-.043-.0323-.0895-.0323-.1396.0143-.0287.0358-.0609.0645-.0967.0358-.043.0788-.0716.1289-.086.1575-.0644.3222-.111.4941-.1396.444-.0215.8845-.0394 1.3213-.0537h.4512c.2864 0 .4977-.0108.6338-.0322.1432-.0215.2578-.0967.3437-.2256.086-.1289.1862-.3259.3008-.5909.0645-.1432.1432-.3007.2363-.4726.2364-.5013.4727-1.0134.709-1.5361.1074-.2364.2184-.4655.333-.6875.0931-.222.2399-.3939.4405-.5157.1933-.0931.3616-.0859.5048.0215.043.0287.0752.0752.0967.1397.0287.0644.043.1217.043.1718 0 .2793-.0716.5551-.2149.8272-.0286.0573-.0608.1253-.0966.2041-.0931.2578-.1934.5192-.3008.7842-.2077.4869-.4046.9847-.5908 1.4931-.0502.0931-.0537.1755-.0108.2471.0502.0716.1218.1074.2149.1074.5084.0143 1.0061.0215 1.4931.0215h.752c.7877.0143 1.1028.1253.9453.333-.1074.1218-.2256.1934-.3545.2149-.1217.0143-.2471.0107-.376-.0108h-.2363c-.8021.0502-1.597.0824-2.3848.0967-.3652 0-.6087.1647-.7304.4941-.1289.3151-.2543.6302-.376.9454-.1791.4153-.3473.8199-.5049 1.2138-.1575.3724-.3151.7484-.4727 1.128-.4082.9596-.802 1.9228-1.1816 2.8896-.2363.6302-.4225 1.2747-.5586 1.9336-.3008 1.196.1611 1.6543 1.3858 1.375 1.2031-.2865 2.4635-1.153 3.7812-2.5996.5729-.3653.7233-.2005.4512.4941zm13.0088-11.8701c.0358-.0573.111-.1038.2256-.1396.1217-.043.2434-.0717.3652-.086.1289-.0215.2399-.0179.333.0108.0931.0214.1325.0644.1182.1289-.0788.3294-.197.6517-.3545.9668-.0144.0429-.0394.0966-.0752.1611-.5944 1.375-1.1996 2.7393-1.8155 4.0928-.0931.2005-.179.3974-.2578.5908-.222.4583-.4977 1.0169-.8271 1.6758-.3653.6946-.6804 1.332-.9453 1.9121.2506-.3008.5657-.5192.9453-.6553.3795-.1432.6696-.2148.8701-.2148.7591.0143 1.1781.3903 1.2568 1.1279.1218.8379-.0286 1.6901-.4511 2.5566-.4226.8666-.9812 1.5756-1.6758 2.127-.5873.3294-1.1459.4762-1.6758.4404-.5228-.0429-.9883-.3008-1.3965-.7734-.0501 0-.1002.025-.1504.0752-.0573.0429-.1181.0967-.1826.1611-.0788.0931-.1647.1647-.2578.2149-.0645.0286-.1325.0358-.2041.0214-.0716-.0143-.1289-.0358-.1719-.0644-.1575-.1289-.2077-.2865-.1504-.4727.6016-1.5755 1.307-3.2155 2.1162-4.9199.8164-1.7044 1.6328-3.3659 2.4493-4.9844.3437-.7233.6839-1.4251 1.0205-2.1054.136-.265.2685-.5407.3974-.8272.1576-.3294.3223-.6696.4942-1.0205zm-2.6963 9.7432c-.5515.3939-1.0277.8737-1.4287 1.4394-.4011.5658-.5443 1.1638-.4297 1.794.0573.3652.2041.623.4404.7734.2363.1504.5121.0967.8272-.1611.3151-.2936.6302-.6625.9453-1.1065.3151-.444.5693-.9166.7627-1.4179.1575-.4441.2506-.8308.2793-1.1602.0358-.3294-.0502-.5299-.2579-.6016-.2076-.0716-.5872.0752-1.1386.4405zm8.3037.7197c-.0645.4941-.2972.8164-.6983.9668-.401.1504-.5335-.0466-.3974-.5908.1432-.5443-.1003-.6804-.7305-.4082-.6302.2649-1.1494.6015-1.5576 1.0097-.6302.6446-1.1888 1.3392-1.6758 2.084-.0501.0645-.0895.1182-.1181.1612-.1433.2076-.2865.4046-.4297.5908-.0931.1289-.2006.2112-.3223.247-.1289.0287-.2578.0323-.3867.0108-.1218-.0143-.2149-.0609-.2793-.1397-.0645-.0787-.0716-.1718-.0215-.2793.0788-.1933.1719-.3903.2793-.5908.6445-1.1959 1.2998-2.3955 1.9658-3.5986.0143-.0143.0215-.0287.0215-.043.0931-.1862.2041-.3581.333-.5156.1432-.1576.308-.222.4942-.1934.1861.0287.3115.1397.3759.333.0788.2507.1468.3939.2041.4297.0573.0287.1862.0036.3867-.0752.4297-.1575.8487-.2685 1.2569-.333.4082-.0644.7412-.0465.999.0537.265.0931.3652.3868.3008.8809zm6.3379 2.4707c-.4154.4082-.8988.7591-1.4502 1.0527-.5514.2865-1.0134.4763-1.3858.5694-.3724.0859-.7555.136-1.1494.1504-.6302.0286-1.2103-.0573-1.7402-.2579-.8665-.3509-1.1673-1.0205-.9024-2.0087.2507-.8523.7592-1.5183 1.5254-1.9981.7663-.4798 1.5577-.7126 2.3741-.6982h.0214c.2077-.0144.4047 0 .5909.0429.3151.1146.5156.3008.6015.5586.086.2578.0287.5443-.1718.8594-.4584.6947-1.0814 1.0814-1.8692 1.1602-.5228.0501-1.0277.025-1.5146-.0752-.0931-.0144-.1755.0107-.2471.0752-.0716.0644-.1146.1432-.1289.2363-.1432.6159.0465 1.0098.5693 1.1816.6446.222 1.3142.222 2.0088 0 .8021-.2506 1.5648-.7233 2.2881-1.4179.7233-.6947 1.1387-1.017 1.2461-.9668.1146.0429.1504.1754.1074.3974-.1002.3509-.3581.7305-.7734 1.1387zm-4.5762-1.7295c-.043.0501-.0752.1074-.0967.1719-.0143.0573.0108.111.0752.1611.2507.1432.5228.197.8164.1611.2936-.0429.5407-.1539.7412-.333.2077-.1862.2972-.4117.2686-.6767-.0215-.0931-.0716-.1504-.1504-.1719-.0788-.0286-.1575-.0358-.2363-.0215-.53.0931-1.0026.3295-1.418.709zm14.4801-3.4482c.079 0 .154.0358.226.1074.072.0716.093.1468.064.2256-.05.1217-.107.2399-.171.3545-1.025 1.7474-2.206 3.3838-3.545 4.9091-.344.3939-.72.7663-1.128 1.1172-.194.1719-.416.3044-.666.3975-.459.1934-.813.1969-1.064.0107-.25-.1933-.361-.5335-.333-1.0205.022-.0787.04-.1575.054-.2363.014-.1146.025-.2363.032-.3652.007-.1361-.011-.2829-.054-.4405-.193.1719-.3756.3366-.5474.4942-.3653.3437-.7198.6732-1.0635.9883-.3796.3509-.8272.4869-1.3428.4082-.3509-.0645-.5586-.2614-.623-.5909-.0287-.2721-.0287-.5406 0-.8056.1575-1.1817.4511-2.3239.8808-3.4268.0788-.1719.1791-.3151.3008-.4297.1576-.1718.3545-.2184.5908-.1396.2364.0931.333.2685.2901.5263-.0502.2149-.1075.4333-.1719.6553-.0143.0788-.0287.1576-.043.2364-.1862.6803-.3151 1.2067-.3867 1.5791-.0716.3652-.1038.6158-.0967.7519.0072.1361.043.179.1074.1289.265-.1289.4942-.2972.6875-.5049.2006-.2148.3868-.4332.5586-.6552.1433-.2006.3008-.3975.4727-.5909.1793-.1862.3473-.3759.5053-.5693.136-.1862.282-.3652.44-.5371.143-.1576.312-.2936.505-.4082.251-.1218.501-.1039.752.0537.107.0788.168.1683.182.2686.022.1002.015.2076-.021.3222-.093.4225-.186.8487-.279 1.2783-.05.2149-.104.4261-.161.6338-.036.1719-.068.3438-.097.5157-.014.0644-.014.1289 0 .1933.014.0645.054.1039.118.1182.043.0143.082.0143.118 0 .043-.0143.083-.0394.118-.0752.201-.1719.38-.3581.537-.5586.337-.4297.67-.8558.999-1.2783.251-.3509.509-.6911.774-1.0205.551-.7377 1.121-1.461 1.708-2.17.186-.2721.444-.4225.773-.4511zm4.168 3.8564c-1.131.4225-1.948.7663-2.449 1.0313-.365.179-.576.3294-.634.4511-.05.1146-.007.3295.129.6446 0 .0143.011.0358.032.0644.158.3796.251.7735.28 1.1817.05.8235-.652 1.4-2.106 1.7294-1.446.3295-2.413.3402-2.9.0323-.494-.308-.645-.6983-.451-1.1709.186-.4727.676-.9525 1.471-1.4395s1.325-.8379 1.59-1.0527c.272-.2149.355-.4548.247-.7197-.035-.0931-.075-.1862-.118-.2793-.093-.222-.19-.4512-.29-.6875-.186-.4297-.265-.8522-.236-1.2676.021-.4154.172-.7627.451-1.042.286-.2865.727-.4404 1.321-.4619.337-.0143.638.0322.903.1396.265.1003.476.2901.633.5694.129.1933.09.3688-.118.5263-.136.1075-.283.1218-.44.043-.1-.043-.197-.1038-.29-.1826v-.0322c-.043-.0287-.083-.0573-.118-.086-.043-.0644-.09-.1146-.14-.1504-.186-.136-.376-.1754-.569-.1181-.187.0501-.326.1933-.419.4297-.065.1862-.097.3759-.097.5693.014.2363.068.4655.161.6875.065.1361.122.2614.172.376.122.3151.222.5335.301.6552.079.1146.172.1648.279.1504.115-.0215 1.132-.3867 3.051-1.0957.415-.136.533.0323.354.5049zm-4.651 4.1035c.501-.1718.713-.5084.634-1.0097 0-.0358-.007-.0752-.022-.1182-.028-.2721-.086-.4798-.172-.6231-.086-.1503-.279-.1468-.58.0108-.744.4225-1.432.9167-2.062 1.4824-.043.0501-.083.0967-.118.1397 0 0-.007.0107-.022.0322-.043.0573-.05.1217-.021.1933.028.0717.093.1075.193.1075.738.1146 1.461.0429 2.17-.2149z" fill="#fff"/></svg>