<svg width="129" height="62" viewBox="0 0 129 62" fill="none" xmlns="http://www.w3.org/2000/svg"><rect width="129" height="58" rx="10" fill="#000" fill-opacity=".15"/><rect x=".5" y=".5" width="128" height="57" rx="9.5" stroke="#fff" stroke-opacity=".8"/><path d="M97.1641 29.498c-.5371.0502-1.0814.0967-1.6329.1397-.5013.0501-1.0061.0967-1.5146.1396-3.6523.3796-7.2904.8702-10.9141 1.4717-4.1608.6589-8.3144 1.4466-12.4609 2.3633-.7233.1576-1.3929.4476-2.0088.8701-4.9414 3.2943-10.0404 6.2591-15.2969 8.8946-5.2565 2.6282-10.6491 4.9807-16.1777 7.0576-2.4134.9453-4.8698 1.7402-7.3691 2.3847-1.153.3008-2.3275.4906-3.5235.5694-.1575.0143-.3151.0215-.4726.0215-.5371.0214-1.0492-.0645-1.5362-.2579-.7591-.3294-.9882-.8808-.6875-1.6543.2364-.5514.5837-1.0384 1.042-1.4609.8952-.8809 1.8871-1.6364 2.9756-2.2666 2.6784-1.5755 5.4499-2.9648 8.3145-4.168 2.8359-1.2246 5.7112-2.3489 8.6259-3.373.0788-.0143.1504-.0394.2149-.0752.0931-.043.1969-.0824.3115-.1182.4225-.1217.7054-.4046.8486-.8486.2507-.6589.5121-1.3141.7842-1.9658.043-.1074.0895-.2256.1397-.3545.5944-1.4753 1.1995-2.9613 1.8154-4.458 1.153-2.8216 2.3024-5.6504 3.4482-8.4863.7592-1.7833 1.3679-3.6202 1.8262-5.5108.0287-.1719.0824-.3437.1611-.5156.1433-.2077.3331-.2793.5694-.2149.0931-.0286.1969-.0286.3115 0 .0931.0144.1683.0538.2256.1182.0644.0645.0967.1432.0967.2363.0215.2865.0071.5622-.043.8272-.3437 1.6686-.8558 3.2907-1.5361 4.8662-1.1673 2.8359-2.3418 5.679-3.5235 8.5293-.4726 1.1673-.9524 2.3346-1.4394 3.5019-.0931.222-.1862.4441-.2793.6661-.2865.7089-.5801 1.4251-.8809 2.1484-.0143.0286-.0215.0501-.0215.0644-.0501.0788-.0787.154-.0859.2256-.0072.0716.0286.1397.1074.2041.0143.0144.0394.0287.0752.043.0287-.0143.0681-.0286.1182-.043h.043c.7447-.2363 1.4788-.4726 2.2021-.7089 1.2891-.4226 2.571-.8415 3.8457-1.2569 4.5404-1.3965 9.1201-2.6175 13.7393-3.6631.5514-.1217 1.0527-.3401 1.5039-.6552 1.3105-.931 2.5996-1.8835 3.8672-2.8575 1.2675-.9811 2.485-2.0159 3.6523-3.1045 1.2747-1.1458 2.4313-2.4134 3.4697-3.8027.6159-.8021 1.0814-1.6901 1.3965-2.6641.4297-1.4967.154-2.8144-.8271-3.9531-.3581-.4225-.7627-.7842-1.2139-1.0849-.4512-.3008-.9274-.5622-1.4287-.7842-1.7188-.7377-3.5091-1.2103-5.3711-1.418-1.6185-.2005-3.2406-.3008-4.8662-.3008-1.4824 0-2.9613.0609-4.4365.1826-3.8028.3008-7.5625.8773-11.2793 1.7295-2.5352.5515-5.0202 1.239-7.4551 2.0625-2.4349.8164-4.8018 1.8477-7.1006 3.0938-.8522.4368-1.6758.9167-2.4707 1.4394-.7949.5157-1.554 1.0814-2.2774 1.6973-.5514.5085-1.0634 1.0456-1.5361 1.6113-.3509.3796-.6051.82-.7627 1.3213-.2506.7735-.0823 1.4359.5049 1.9873.3581.3438.7734.6016 1.2461.7735.8021.3366 1.6364.5335 2.5029.5908.4584.0358.9239.0609 1.3965.0752.6302.0286 1.2604.0609 1.8906.0967.5085.0286 1.0062.0752 1.4932.1396.0645.0143.1182.0466.1611.0967.0502.043.0896.0967.1182.1611.0143.1289-.0179.2149-.0967.2578-.0788.0358-.1575.0466-.2363.0323h-.2793c-.4583-.0215-.9059-.0323-1.3428-.0323h-1.1387c-.6445 0-1.2819-.0143-1.9121-.0429-.6302-.0287-1.2604-.1075-1.8906-.2364-.709-.1575-1.3965-.3938-2.0625-.7089-.3581-.1719-.6946-.3832-1.0098-.6338-.9453-.7878-1.1816-1.7725-.7089-2.9541.3294-.7735.802-1.4538 1.4179-2.0411.8021-.8307 1.683-1.5791 2.6426-2.2451 2.6139-1.7903 5.3962-3.2369 8.3467-4.3398 2.3776-.9167 4.791-1.6865 7.2402-2.3096 2.4492-.623 4.9271-1.1387 7.4336-1.5469 3.86-.6803 7.7451-1.0276 11.6553-1.042h.376c1.4824 0 2.9576.0752 4.4257.2256 1.4753.1504 2.9291.4297 4.3614.8379 1.1816.3295 2.3024.8021 3.3623 1.418.5514.3294 1.0456.7233 1.4824 1.1816 1.4538 1.5111 1.8011 3.2764 1.042 5.2959-.3438.8952-.8164 1.7295-1.418 2.503-1.1028 1.4537-2.331 2.7858-3.6845 3.9961-1.6543 1.4967-3.3803 2.9075-5.1778 4.2324-.0501.0429-.1146.0823-.1933.1181-.0931.0645-.1862.1361-.2793.2149-.0931.0788-.1576.1862-.1934.3223.0645.0501.1218.0751.1719.0751.0788-.0143.1575-.0286.2363-.0429.0788-.0358.1576-.0609.2363-.0752 4.6478-.9453 9.3099-1.7259 13.9864-2.3418 2.2558-.2793 4.5009-.5371 6.7353-.7734.7735-.0788 1.5397-.1576 2.2988-.2364.265-.0358.5407-.0537.8272-.0537.265-.0143.5299.0108.7949.0752.0358.0143.068.043.0967.0859.0358.0359.0537.0681.0537.0967.0143.1003-.0036.1755-.0537.2256-.043.043-.0967.0716-.1611.0859zM43.5391 46.75h.0214c.1146-.0501.2221-.1146.3223-.1934.1003-.0787.1683-.1862.2041-.3222h-.0752c-.3151.0143-.5156-.0287-.6015-.1289-.086-.0931-.0896-.2722-.0108-.5371.043-.1719.1039-.3438.1826-.5157.0215-.0501.0394-.0895.0537-.1181.1218-.3151.24-.6231.3545-.9239.2793-.6803.5479-1.3678.8057-2.0625.0143-.0286.0358-.068.0645-.1181.0501-.1074.0823-.2113.0966-.3115.0144-.1075-.0107-.2149-.0752-.3223h-.0429c-.0788.0143-.1504.0394-.2149.0752-.0429.0143-.0823.0286-.1181.043-1.9981.7233-3.9747 1.4895-5.9297 2.2988-1.9551.8021-3.8851 1.6758-5.7901 2.6211-1.5468.7376-3.0436 1.5648-4.4902 2.4814-.8379.5013-1.6006 1.0993-2.2881 1.794-.3795.3437-.666.7591-.8594 1.2461-.0573.1575-.0537.3079.0108.4511.0716.1433.1969.2399.376.2901.2005.0573.4117.0859.6337.0859.2364 0 .4727-.0215.709-.0644 1.5254-.2722 3.0365-.6517 4.5332-1.1387 3.2513-1.0384 6.4525-2.2201 9.6035-3.5449.8451-.3438 1.6866-.7054 2.5245-1.085zm21.8603-11.5049c.0143-.0358.0394-.0609.0752-.0752.0573-.0286.1003-.068.1289-.1181.0358-.0502.0322-.1218-.0107-.2149-.0788.0143-.1683.0394-.2686.0752-.5299.1432-1.0563.2757-1.5791.3975-1.4323.3795-2.8574.7662-4.2754 1.1601-3.9388 1.1029-7.8454 2.3239-11.7197 3.6631-.3366.1074-.6195.2578-.8486.4512-.222.1862-.3832.4547-.4834.8056-.0573.1719-.1254.3438-.2041.5157-.0502.0787-.0896.1575-.1182.2363-.1003.2363-.2578.5658-.4727.9883-.222.4297-.444.8808-.666 1.3535-.222.4727-.3759.8773-.4619 1.2139-.0859.3366-.0501.5299.1074.58.222-.0501.4261-.136.6123-.2578.0931-.0501.1898-.0966.2901-.1396 4.2682-1.8763 8.4433-3.9567 12.5254-6.2412 1.6185-.931 3.2226-1.8763 4.8125-2.836.6946-.4297 1.3893-.8486 2.084-1.2568.0143-.0143.0286-.0215.0429-.0215.1576-.0788.3008-.1719.4297-.2793zm11.1182 4.6299c-.4154.4082-.8988.7591-1.4502 1.0527-.5514.2865-1.0134.4763-1.3858.5694-.3724.0859-.7555.136-1.1494.1504-.6302.0286-1.2103-.0573-1.7402-.2579-.8665-.3509-1.1673-1.0205-.9024-2.0087.2507-.8523.7592-1.5183 1.5254-1.9981.7663-.4798 1.5577-.7126 2.3741-.6982h.0214c.2077-.0144.4047 0 .5909.0429.3151.1146.5156.3008.6015.5586.086.2578.0287.5443-.1718.8594-.4584.6947-1.0814 1.0814-1.8692 1.1602-.5228.0501-1.0277.025-1.5146-.0752-.0931-.0144-.1755.0107-.2471.0752-.0716.0644-.1146.1432-.1289.2363-.1432.6159.0465 1.0098.5693 1.1816.6446.222 1.3142.222 2.0088 0 .8021-.2506 1.5648-.7233 2.2881-1.4179.7233-.6947 1.1387-1.017 1.2461-.9668.1146.0429.1504.1754.1074.3974-.1002.3509-.3581.7305-.7734 1.1387zm-4.5762-1.7295c-.043.0501-.0752.1074-.0967.1719-.0143.0573.0108.111.0752.1611.2507.1432.5228.197.8164.1611.2936-.0429.5407-.1539.7412-.333.2077-.1862.2972-.4117.2686-.6767-.0215-.0931-.0716-.1504-.1504-.1719-.0788-.0286-.1575-.0358-.2363-.0215-.53.0931-1.0026.3295-1.418.709zm9.9043.4082c-1.1315.4225-1.9479.7663-2.4492 1.0313-.3653.179-.5765.3294-.6338.4511-.0501.1146-.0072.3295.1289.6446 0 .0143.0107.0358.0322.0644.1576.3796.2507.7735.2793 1.1817.0502.8235-.6517 1.4-2.1054 1.7294-1.4467.3295-2.4135.3402-2.9004.0323-.4942-.308-.6446-.6983-.4512-1.1709.1862-.4727.6768-.9525 1.4717-1.4395s1.3248-.8379 1.5898-1.0527c.2722-.2149.3545-.4548.2471-.7197-.0358-.0931-.0752-.1862-.1182-.2793-.0931-.222-.1898-.4512-.29-.6875-.1862-.4297-.265-.8522-.2363-1.2676.0214-.4154.1718-.7627.4511-1.042.2865-.2865.7269-.4404 1.3213-.4619.3366-.0143.6374.0322.9024.1396.2649.1003.4762.2901.6338.5694.1289.1933.0895.3688-.1182.5263-.1361.1075-.2829.1218-.4404.043-.1003-.043-.197-.1038-.2901-.1826v-.0322c-.043-.0287-.0823-.0573-.1181-.086-.043-.0644-.0896-.1146-.1397-.1504-.1862-.136-.376-.1754-.5693-.1181-.1862.0501-.3259.1933-.419.4297-.0644.1862-.0967.3759-.0967.5693.0144.2363.0681.4655.1612.6875.0644.1361.1217.2614.1719.376.1217.3151.222.5335.3007.6552.0788.1146.1719.1648.2793.1504.1146-.0215 1.1315-.3867 3.0508-1.0957.4154-.136.5335.0323.3545.5049zm-4.6514 4.1035c.5013-.1718.7126-.5084.6338-1.0097 0-.0358-.0071-.0752-.0215-.1182-.0286-.2721-.0859-.4798-.1718-.6231-.086-.1503-.2793-.1468-.5801.0108-.7448.4225-1.4323.9167-2.0625 1.4824-.043.0501-.0824.0967-.1182.1397 0 0-.0071.0107-.0215.0322-.0429.0573-.0501.1217-.0214.1933.0286.0717.0931.1075.1933.1075.7376.1146 1.461.0429 2.1699-.2149zm10.3448-2.7822c-.4154.4082-.8988.7591-1.4502 1.0527-.5515.2865-1.0134.4763-1.3858.5694-.3724.0859-.7555.136-1.1494.1504-.6302.0286-1.2103-.0573-1.7402-.2579-.8666-.3509-1.1673-1.0205-.9024-2.0087.2507-.8523.7591-1.5183 1.5254-1.9981.7663-.4798 1.5576-.7126 2.374-.6982h.0215c.2077-.0144.4047 0 .5909.0429.3151.1146.5156.3008.6015.5586.086.2578.0287.5443-.1719.8594-.4583.6947-1.0813 1.0814-1.8691 1.1602-.5228.0501-1.0277.025-1.5146-.0752-.0931-.0144-.1755.0107-.2471.0752-.0716.0644-.1146.1432-.1289.2363-.1433.6159.0465 1.0098.5693 1.1816.6445.222 1.3141.222 2.0088 0 .8021-.2506 1.5648-.7233 2.2881-1.4179.7233-.6947 1.1387-1.017 1.2461-.9668.1146.0429.1504.1754.1074.3974-.1003.3509-.3581.7305-.7734 1.1387zm-4.5762-1.7295c-.043.0501-.0752.1074-.0967.1719-.0143.0573.0108.111.0752.1611.2507.1432.5228.197.8164.1611.2936-.0429.5407-.1539.7412-.333.2077-.1862.2972-.4117.2686-.6767-.0215-.0931-.0716-.1504-.1504-.1719-.0788-.0286-.1576-.0358-.2363-.0215-.53.0931-1.0026.3295-1.418.709zm9.8613-.7412c-.0644.4941-.2972.8164-.6982.9668-.4011.1504-.5336-.0466-.3975-.5908.1432-.5443-.1002-.6804-.7305-.4082-.6302.2649-1.1494.6015-1.5576 1.0097-.6302.6446-1.1888 1.3392-1.6758 2.084-.0501.0645-.0895.1182-.1181.1612-.1432.2076-.2865.4046-.4297.5908-.0931.1289-.2005.2112-.3223.247-.1289.0287-.2578.0323-.3867.0108-.1217-.0143-.2148-.0609-.2793-.1397-.0644-.0787-.0716-.1718-.0215-.2793.0788-.1933.1719-.3903.2793-.5908.6446-1.1959 1.2998-2.3955 1.9658-3.5986.0144-.0143.0215-.0287.0215-.043.0931-.1862.2041-.3581.333-.5156.1433-.1576.308-.222.4942-.1934.1862.0287.3115.1397.376.333.0787.2507.1468.3939.2041.4297.0573.0287.1862.0036.3867-.0752.4297-.1575.8486-.2685 1.2568-.333.4082-.0644.7412-.0465.999.0537.265.0931.3653.3868.3008.8809zm6.9287 1.4072c-.9596 1.1315-1.9013 1.9658-2.8252 2.503-.9166.5371-1.9013.7161-2.9541.5371-1.0455-.1862-1.4752-.8916-1.289-2.1162.1289-.6159.3043-1.2175.5263-1.8047.5515-1.3679 1.1101-2.7286 1.6758-4.0821.1862-.4869.3832-.9775.5908-1.4716.0502-.1075.0967-.2149.1397-.3223.0788-.179.1575-.3617.2363-.5479.1146-.3151-.0107-.4798-.376-.4941h-.9238c-.1074.0143-.2184.0286-.333.043-.1862.0143-.3724.0214-.5586.0214-.179 0-.3473-.0465-.5049-.1396-.0429-.0143-.0787-.0394-.1074-.0752-.0215-.043-.0322-.0895-.0322-.1396.0143-.0287.0358-.0609.0644-.0967.0358-.043.0788-.0716.1289-.086.1576-.0644.3223-.111.4942-.1396.444-.0215.8844-.0394 1.3213-.0537h.4511c.2865 0 .4978-.0108.6338-.0322.1433-.0215.2578-.0967.3438-.2256.0859-.1289.1862-.3259.3008-.5909.0644-.1432.1432-.3007.2363-.4726.2363-.5013.4726-1.0134.709-1.5361.1074-.2364.2184-.4655.333-.6875.0931-.222.2399-.3939.4404-.5157.1934-.0931.3617-.0859.5049.0215.043.0287.0752.0752.0967.1397.0286.0644.0429.1217.0429.1718 0 .2793-.0716.5551-.2148.8272-.0286.0573-.0609.1253-.0967.2041-.0931.2578-.1933.5192-.3008.7842-.2076.4869-.4046.9847-.5908 1.4931-.0501.0931-.0537.1755-.0107.2471.0501.0716.1217.1074.2148.1074.5085.0143 1.0062.0215 1.4932.0215h.7517c.788.0143 1.103.1253.946.333-.108.1218-.226.1934-.355.2149-.122.0143-.247.0107-.376-.0108h-.236c-.8023.0502-1.5973.0824-2.385.0967-.3652 0-.6087.1647-.7305.4941-.1289.3151-.2542.6302-.376.9454-.179.4153-.3473.8199-.5048 1.2138-.1576.3724-.3151.7484-.4727 1.128-.4082.9596-.8021 1.9228-1.1816 2.8896-.2364.6302-.4226 1.2747-.5586 1.9336-.3008 1.196.1611 1.6543 1.3857 1.375 1.2031-.2865 2.4635-1.153 3.7813-2.5996.5729-.3653.7232-.2005.4511.4941z" fill="#fff"/></svg>