<svg width="466" height="107" viewBox="0 0 466 107" fill="none" xmlns="http://www.w3.org/2000/svg">
<path d="M0 0H446C457.046 0 466 8.95431 466 20V87C466 98.0457 457.046 107 446 107H0V0Z" fill="#78B2C4" fill-opacity="0.75"/>
<path d="M58.05 78.715C53.89 78.715 50.2717 77.8483 47.195 76.115C44.1183 74.3817 41.735 71.8033 40.045 68.38C38.3983 64.9133 37.575 60.645 37.575 55.575V54.275C37.575 50.6783 38.0517 47.4933 39.005 44.72C40.0017 41.9467 41.3883 39.6067 43.165 37.7C44.985 35.75 47.1517 34.2767 49.665 33.28C52.1783 32.2833 54.9733 31.785 58.05 31.785C60.39 31.785 62.5567 32.11 64.55 32.76C66.5867 33.3667 68.385 34.2767 69.945 35.49C71.505 36.66 72.805 38.155 73.845 39.975C74.9283 41.7517 75.73 43.81 76.25 46.15H67.8C67.1933 44.2433 66.37 42.7483 65.33 41.665C64.29 40.5817 63.1417 39.8233 61.885 39.39C60.6283 38.9133 59.35 38.675 58.05 38.675C55.6233 38.675 53.4783 39.2383 51.615 40.365C49.7517 41.4917 48.3 43.2033 47.26 45.5C46.2633 47.7967 45.765 50.7217 45.765 54.275V55.575C45.765 58.3483 46.0683 60.7533 46.675 62.79C47.2817 64.8267 48.1267 66.5167 49.21 67.86C50.3367 69.2033 51.6367 70.2 53.11 70.85C54.6267 71.5 56.2733 71.825 58.05 71.825C60.3033 71.825 62.2533 71.435 63.9 70.655C65.5467 69.875 66.8683 68.6617 67.865 67.015C68.8617 65.3683 69.4683 63.2883 69.685 60.775H59.35V54.275H77.225V56.875C77.225 60.515 76.77 63.7 75.86 66.43C74.9933 69.16 73.7367 71.435 72.09 73.255C70.4433 75.075 68.4283 76.44 66.045 77.35C63.705 78.26 61.04 78.715 58.05 78.715ZM80.1703 78L97.3953 32.5H105.195L122.42 78H114.1L110.265 67.73H91.8053L87.9703 78H80.1703ZM94.3403 60.97H107.73L101.1 42.25L94.3403 60.97ZM144.183 78.715C140.283 78.715 137.054 78.1517 134.498 77.025C131.941 75.8983 129.991 74.36 128.648 72.41C127.348 70.4167 126.568 68.1633 126.308 65.65H134.108C134.454 67.4267 135.343 68.9 136.773 70.07C138.203 71.24 140.673 71.825 144.183 71.825C147.823 71.825 150.401 71.24 151.918 70.07C153.478 68.8567 154.258 67.3833 154.258 65.65C154.258 64.22 153.824 63.05 152.958 62.14C152.091 61.23 150.748 60.45 148.928 59.8C147.151 59.1067 144.876 58.4783 142.103 57.915C138.983 57.2217 136.339 56.355 134.173 55.315C132.006 54.2317 130.359 52.8017 129.233 51.025C128.149 49.2483 127.608 46.9733 127.608 44.2C127.608 41.9033 128.236 39.8233 129.493 37.96C130.749 36.0967 132.591 34.6017 135.018 33.475C137.488 32.3483 140.543 31.785 144.183 31.785C147.736 31.785 150.683 32.3267 153.023 33.41C155.406 34.45 157.226 35.9017 158.483 37.765C159.783 39.6283 160.541 41.7733 160.758 44.2H152.958C152.611 42.5533 151.723 41.2317 150.293 40.235C148.906 39.195 146.869 38.675 144.183 38.675C141.063 38.675 138.809 39.2167 137.423 40.3C136.079 41.3833 135.408 42.6833 135.408 44.2C135.408 46.28 136.274 47.84 138.008 48.88C139.741 49.92 142.406 50.8083 146.003 51.545C148.689 52.1083 151.029 52.78 153.023 53.56C155.016 54.2967 156.684 55.2067 158.028 56.29C159.371 57.33 160.368 58.63 161.018 60.19C161.711 61.7067 162.058 63.5267 162.058 65.65C162.058 68.1633 161.386 70.4167 160.043 72.41C158.743 74.36 156.771 75.8983 154.128 77.025C151.484 78.1517 148.169 78.715 144.183 78.715ZM181.273 78V39.26H165.998V32.5H204.348V39.26H189.073V78H181.273ZM211.491 78V32.5H228.716C232.529 32.5 235.692 33.1067 238.206 34.32C240.762 35.5333 242.691 37.2017 243.991 39.325C245.291 41.4483 245.941 43.8967 245.941 46.67C245.941 49.79 245.096 52.4983 243.406 54.795C241.716 57.0483 239.181 58.6733 235.801 59.67L247.241 78H238.661L228.586 60.58H219.291V78H211.491ZM219.291 54.08H227.416C231.402 54.08 234.176 53.43 235.736 52.13C237.339 50.83 238.141 49.01 238.141 46.67C238.141 44.33 237.339 42.51 235.736 41.21C234.176 39.91 231.402 39.26 227.416 39.26H219.291V54.08ZM274.195 78.715C271.422 78.715 268.779 78.2817 266.265 77.415C263.795 76.5483 261.585 75.205 259.635 73.385C257.685 71.5217 256.147 69.1383 255.02 66.235C253.937 63.2883 253.395 59.735 253.395 55.575V54.275C253.395 50.2883 253.937 46.8867 255.02 44.07C256.147 41.21 257.685 38.87 259.635 37.05C261.585 35.23 263.795 33.9083 266.265 33.085C268.779 32.2183 271.422 31.785 274.195 31.785C276.969 31.785 279.59 32.2183 282.06 33.085C284.574 33.9083 286.805 35.23 288.755 37.05C290.705 38.87 292.222 41.21 293.305 44.07C294.432 46.8867 294.995 50.2883 294.995 54.275V55.575C294.995 59.735 294.432 63.2883 293.305 66.235C292.222 69.1383 290.705 71.5217 288.755 73.385C286.805 75.205 284.574 76.5483 282.06 77.415C279.59 78.2817 276.969 78.715 274.195 78.715ZM274.195 71.825C276.362 71.825 278.399 71.305 280.305 70.265C282.212 69.225 283.772 67.535 284.985 65.195C286.199 62.8117 286.805 59.605 286.805 55.575V54.275C286.805 50.4617 286.199 47.4283 284.985 45.175C283.772 42.8783 282.212 41.2317 280.305 40.235C278.399 39.195 276.362 38.675 274.195 38.675C272.029 38.675 269.97 39.195 268.02 40.235C266.114 41.2317 264.554 42.8783 263.34 45.175C262.17 47.4283 261.585 50.4617 261.585 54.275V55.575C261.585 59.605 262.17 62.8117 263.34 65.195C264.554 67.535 266.114 69.225 268.02 70.265C269.97 71.305 272.029 71.825 274.195 71.825ZM304.42 78V32.5H320.995C325.069 32.5 328.427 33.1067 331.07 34.32C333.714 35.49 335.664 37.1583 336.92 39.325C338.22 41.4917 338.87 44.0483 338.87 46.995C338.87 49.9417 338.22 52.4983 336.92 54.665C335.664 56.8317 333.714 58.5217 331.07 59.735C328.427 60.905 325.069 61.49 320.995 61.49H312.22V78H304.42ZM312.22 54.73H320.345C324.462 54.73 327.279 54.1017 328.795 52.845C330.312 51.545 331.07 49.595 331.07 46.995C331.07 44.4383 330.312 42.51 328.795 41.21C327.279 39.91 324.462 39.26 320.345 39.26H312.22V54.73ZM365.205 78.715C361.435 78.715 358.164 78.0217 355.39 76.635C352.617 75.2483 350.472 73.1683 348.955 70.395C347.439 67.5783 346.68 64.0467 346.68 59.8V32.5H354.48V59.345C354.48 63.635 355.39 66.7983 357.21 68.835C359.03 70.8283 361.695 71.825 365.205 71.825C368.759 71.825 371.424 70.8283 373.2 68.835C375.02 66.7983 375.93 63.6567 375.93 59.41V32.5H383.73V59.8C383.73 64.0467 382.972 67.5783 381.455 70.395C379.939 73.1683 377.794 75.2483 375.02 76.635C372.247 78.0217 368.975 78.715 365.205 78.715ZM394.811 78V32.5H413.011C418.168 32.5 421.938 33.605 424.321 35.815C426.748 38.025 427.961 40.9717 427.961 44.655C427.961 46.995 427.354 49.01 426.141 50.7C424.928 52.3467 423.259 53.5383 421.136 54.275C423.823 54.8817 425.946 56.1167 427.506 57.98C429.109 59.8 429.911 62.1833 429.911 65.13C429.911 67.6433 429.369 69.875 428.286 71.825C427.203 73.775 425.491 75.2917 423.151 76.375C420.811 77.4583 417.778 78 414.051 78H394.811ZM402.611 71.24H413.206C416.586 71.24 418.904 70.6983 420.161 69.615C421.461 68.5317 422.111 66.8633 422.111 64.61C422.111 62.4 421.461 60.71 420.161 59.54C418.861 58.3267 416.521 57.72 413.141 57.72H402.611V71.24ZM402.611 51.48H412.036C415.069 51.48 417.171 50.9167 418.341 49.79C419.554 48.6633 420.161 47.1467 420.161 45.24C420.161 43.29 419.576 41.8167 418.406 40.82C417.236 39.78 415.113 39.26 412.036 39.26H402.611V51.48Z" fill="white"/>
</svg>
