<svg width="129" height="62" viewBox="0 0 129 62" fill="none" xmlns="http://www.w3.org/2000/svg"><rect y="4" width="129" height="58" rx="10" fill="#000" fill-opacity=".15"/><rect x=".5" y="4.5" width="128" height="57" rx="9.5" stroke="#fff" stroke-opacity=".8"/><path d="M48.9902 16.0488c.6947 1.9551.5443 3.9102-.4511 5.8653-.0931.1862-.2077.3545-.3438.5048-.1289.1504-.3115.2507-.5478.3008-.1576.0287-.2972-.0071-.419-.1074-.1146-.1074-.1575-.2292-.1289-.3652.0931-.2722.1862-.5336.2793-.7842.0501-.1289.1074-.2542.1719-.376.487-1.3535.5729-2.6927.2578-4.0176-.3438-1.511-1.2497-2.5029-2.7178-2.9755-.8522-.2579-1.7116-.3975-2.5781-.419-.8665-.0215-1.7474.0466-2.6426.2041-2.7285.5013-5.3926 1.2962-7.9922 2.3848-4.0032 1.6256-7.8167 3.6487-11.4404 6.0693-3.1152 2.084-5.9189 4.5368-8.4111 7.3584-.8666.974-1.6507 2.0088-2.35257 3.1045-.70182 1.0957-1.264 2.2666-1.68653 3.5127-.4082 1.2389-.60514 2.4886-.59082 3.749.05013 1.3607.39388 2.5209 1.03125 3.4805s1.49317 1.6579 2.56737 2.0947c1.0814.444 2.2988.555 3.6524.333 1.733-.2936 3.373-.9131 4.9199-1.8584.9166-.5371 1.7724-1.1422 2.5674-1.8154.7949-.6803 1.5612-1.4001 2.2988-2.1592 1.7832-1.862 3.3766-3.8708 4.7803-6.0264.8164-1.2747 1.4931-2.621 2.0302-4.039.0287-.0501.0502-.1074.0645-.1719.1289-.3294.2721-.6517.4297-.9668.2506-.4368.6445-.6266 1.1816-.5693.3294.0358.5121.2256.5479.5693 0 .5085-.0967 1.0062-.2901 1.4932-1.1959 3.416-2.4957 6.7962-3.8994 10.1406-.0286.0788-.0609.1576-.0967.2363-.0787.1576-.1468.3151-.2041.4727-.0214.043-.0393.0895-.0537.1396-.0787.1862-.1253.3832-.1396.5909 0 .0787.025.1396.0752.1826.0573.0358.1253.068.2041.0966.1002.0359.179.0824.2363.1397.0215 0 .0394.0107.0537.0322.043.043.0788.0895.1074.1397.0358.0429.0215.1038-.0429.1826-.043.0788-.111.1432-.2041.1934-.1003.0501-.2041.0751-.3116.0751-.3007-.0358-.5371.0287-.7089.1934-.1719.1647-.3151.376-.4297.6338-.4226.8952-.8558 1.7832-1.2998 2.6641-.9095 1.8619-1.9336 3.6738-3.0723 5.4355-.709 1.1029-1.5039 2.1449-2.3848 3.126-.9095 1.0384-1.9873 1.8476-3.2334 2.4277-.6803.3151-1.375.4906-2.0839.5264-.8165.0573-1.4825-.1397-1.9981-.5908-.5085-.444-.7949-1.0743-.8594-1.8907-.0501-.6946.043-1.3893.2793-2.0839.4942-1.3392 1.2211-2.5352 2.1807-3.5879 2.442-2.793 5.3568-4.8734 8.7441-6.2413.5658-.222 1.1315-.4189 1.6973-.5908.0645-.0358.1361-.0608.2148-.0752.4226-.1217.7305-.3795.9239-.7734.1718-.4154.3509-.8272.5371-1.2354.5228-1.0885.9668-2.2057 1.332-3.3515.0143-.0358.0143-.0681 0-.0967-.0215-.0143-.0322-.0286-.0322-.043-.1719.0287-.308.1003-.4082.2149-.1003.1074-.2005.222-.3008.3437-.043.0788-.0967.1576-.1611.2364-1.2103 1.4537-2.5173 2.818-3.9209 4.0927-1.7045 1.5469-3.5951 2.7429-5.6719 3.5879-1.1816.4727-2.374.7842-3.5772.9346-1.1959.1504-2.3919.1074-3.5878-.1289-1.38221-.2793-2.54594-.9453-3.49126-1.9981-.94531-1.0455-1.51464-2.3632-1.708-3.9531-.10743-.9954-.07162-1.9765.10742-2.9433.17903-.9668.47623-1.9229.8916-2.8682.47266-1.0599 1.02767-2.0625 1.66504-3.0078s1.34277-1.8584 2.1162-2.7393c2.7214-3.0866 5.8151-5.7399 9.2813-7.9599 2.4778-1.6114 5.0273-3.0437 7.6484-4.2969 2.6211-1.2533 5.3281-2.2953 8.1211-3.126 1.2246-.3796 2.4671-.666 3.7275-.8594 1.2604-.2005 2.5209-.2757 3.7813-.2256 1.3248.043 2.5638.3474 3.7168.9131 1.0026.5085 1.6865 1.2891 2.0517 2.3418zm-23.1816 28.295c.0286-.1146.0107-.2077-.0537-.2793-.0573-.0717-.1432-.0896-.2578-.0538-.2507.0788-.4942.1648-.7305.2579-2.9004 1.2747-5.4534 3.0722-7.6592 5.3925-.8021.8308-1.486 1.751-2.0517 2.7608-.4297.709-.6911 1.5433-.7842 2.5029v.0967c-.0143.1289-.0143.2936 0 .4941.0788.7233.3258 1.2067.7412 1.4502.4225.2507.9811.2328 1.6758-.0537 1.0026-.4583 1.8834-1.1029 2.6426-1.9336.9453-.9954 1.7796-2.0696 2.5029-3.2226.7233-1.1172 1.3965-2.2631 2.0195-3.4375.6231-1.1745 1.2175-2.3597 1.7832-3.5557.0645-.1432.1218-.2757.1719-.3975v-.0214zm9.5283-2.8897h-.0322c-1.0384-.0143-1.7223-.2435-2.0518-.6875-.3294-.4512-.3151-1.0492.043-1.7939.3008-.5658.6803-1.0599 1.1387-1.4825.1575-.1432.3187-.2578.4834-.3437.1647-.086.3509-.1289.5586-.1289.1217-.0215.2614 0 .4189.0644.0501.0144.1003.0323.1504.0537.1217-.0214.2399-.0608.3545-.1181.0286-.0215.068-.0394.1182-.0537.2363-.0931.4869-.1325.7519-.1182h.333c.4225.0645.7412.2435.9561.5371.2148.2865.29.6374.2256 1.0527-.0359.2507-.1146.487-.2364.709-.8235 1.4753-1.8727 2.2451-3.1474 2.3096h-.0645zm1.6973-3.8457c-.5658-.0215-1.0707.1432-1.5147.4941-.4368.3438-.7627.7413-.9775 1.1924-.2149.4512-.2757.8236-.1826 1.1172.1002.2865.401.3652.9023.2363.5658-.1718 1.0635-.4941 1.4932-.9668.4368-.4726.7018-.9202.7949-1.3427.1003-.4297-.0716-.6732-.5156-.7305zm2.5781 4.4902c-.6803 0-1.0205-.3545-1.0205-1.0634 0-.8666.5622-2.3956 1.6865-4.587.043-.0931.1218-.1396.2363-.1396.4512 0 .6768.179.6768.5371 0 .1289-.0394.2865-.1182.4727-.0286.0501-.4046.9954-1.1279 2.8359-.1146.3008-.1719.5228-.1719.666 0 .1576.0717.2363.2149.2363.5228 0 1.8942-1.2998 4.1142-3.8994.2865-.3509.5694-.5263.8487-.5263.4082 0 .6123.1503.6123.4511 0 .1146-.1253.5479-.376 1.2998-.3437 1.0241-.5156 1.6149-.5156 1.7725 0 .2363.0788.3545.2363.3545.3939 0 1.5433-.7018 3.4482-2.1055.1075-.0931.2006-.1396.2793-.1396.1791 0 .2686.1504.2686.4511 0 .0788-.0251.1433-.0752.1934-1.0098.8665-1.8691 1.5254-2.5781 1.9766-.6446.4153-1.2175.623-1.7188.623h-.1504c-.7376-.1575-1.1064-.734-1.1064-1.7295-.7878.6947-1.443 1.2569-1.9658 1.6865-.5157.4226-1.0814.6338-1.6973.6338zm13.7178-4.6943c-.0645.4941-.2972.8164-.6983.9668-.401.1504-.5335-.0466-.3974-.5908.1432-.5443-.1003-.6804-.7305-.4082-.6302.2649-1.1494.6015-1.5576 1.0097-.6302.6446-1.1888 1.3392-1.6758 2.084-.0501.0645-.0895.1182-.1182.1612-.1432.2076-.2864.4046-.4296.5908-.0931.1289-.2006.2112-.3223.247-.1289.0287-.2578.0323-.3867.0108-.1218-.0143-.2149-.0609-.2793-.1397-.0645-.0787-.0716-.1718-.0215-.2793.0788-.1933.1719-.3903.2793-.5908.6445-1.1959 1.2998-2.3955 1.9658-3.5986.0143-.0143.0215-.0287.0215-.043.0931-.1862.2041-.3581.333-.5156.1432-.1576.3079-.222.4941-.1934.1862.0287.3116.1397.376.333.0788.2507.1468.3939.2041.4297.0573.0287.1862.0036.3867-.0752.4297-.1575.8487-.2685 1.2569-.333.4082-.0644.7412-.0465.999.0537.265.0931.3652.3868.3008.8809zm11.4404 1.2139c.2507-.1576.4476-.197.5908-.1182.1433.0788.0895.3008-.1611.666-.3151.4225-.8809.8737-1.6973 1.3535-.8092.4798-1.5254.6911-2.1484.6338-.6231-.0644-.8057-.5263-.5479-1.3857.265-.8594.4082-1.3392.4297-1.4395.0215-.1074 0-.1683-.0644-.1826-.0573-.0143-.197.0573-.419.2149-.6445.444-1.2747.9095-1.8906 1.3964-.265.2006-.5264.4118-.7842.6338-.1575.1433-.3222.2865-.4941.4297l-.0215.0215c-.1862.1862-.4154.3115-.6875.376-.1217.0358-.2507.0501-.3867.0429-.1361-.0143-.2507-.068-.3438-.1611-.1074-.1074-.1468-.2184-.1181-.333.0286-.1217.1181-.3008.2685-.5371.1504-.2363.3151-.4941.4942-.7734.1862-.2865.29-.462.3115-.5264.0215-.0645.0107-.1289-.0322-.1934-.0502-.0644-.1075-.0823-.1719-.0537-.0573.0215-.2829.1755-.6768.4619-.3939.2793-.931.6732-1.6113 1.1817-.3151.2363-.623.4798-.9238.7304-.0788.0788-.1647.1504-.2578.2149-.222.1862-.4655.2864-.7305.3008-.1934.0143-.3366-.0287-.4297-.1289-.0931-.1003-.1074-.2364-.043-.4082.043-.129.0967-.2471.1612-.3545.0358-.0502.0608-.1003.0752-.1504.5657-1.1459 1.1243-2.2953 1.6757-3.4483.0144-.0286.0287-.068.043-.1181.0645-.1218.1289-.2399.1934-.3545.1718-.1862.3759-.2471.6123-.1826.2721.0787.376.2363.3115.4726-.1289.3581-.2542.7126-.376 1.0635-.0644.1575-.1289.3151-.1933.4726-.1075.2793-.1433.4584-.1075.5372.043.0787.222.025.5371-.1612.2149-.1432.4262-.2864.6338-.4297.2507-.1718.4942-.3294.7305-.4726.3652-.222.7376-.4118 1.1172-.5694.1862-.0787.376-.136.5693-.1718.2006-.043.3868 0 .5586.1289.1289.1074.1826.2291.1612.3652-.0144.1361-.0502.265-.1075.3867-.1002.2364-.1432.3867-.1289.4512.0215.0645.0788.0788.1719.043.0931-.043.2578-.1361.4941-.2793.2364-.1433.4906-.3008.7627-.4727.3438-.222.7054-.4333 1.085-.6338.3151-.2077.6517-.333 1.0098-.376.4941-.0358.6946.1648.6015.6016-.0859.4297-.2578.9453-.5156 1.5469-.2578.5944-.2865.9596-.0859 1.0957.2076.1361.6624-.0466 1.3642-.5479.7018-.5084 1.0993-.7949 1.1924-.8593zm6.2627 1.2568c-.4154.4082-.8988.7591-1.4502 1.0527-.5514.2865-1.0133.4763-1.3857.5694-.3724.0859-.7556.136-1.1494.1504-.6303.0286-1.2103-.0573-1.7403-.2579-.8665-.3509-1.1673-1.0205-.9023-2.0087.2506-.8523.7591-1.5183 1.5254-1.9981.7662-.4798 1.5576-.7126 2.374-.6982h.0215c.2077-.0144.4046 0 .5908.0429.3151.1146.5156.3008.6016.5586.0859.2578.0286.5443-.1719.8594-.4584.6947-1.0814 1.0814-1.8692 1.1602-.5227.0501-1.0276.025-1.5146-.0752-.0931-.0144-.1755.0107-.2471.0752-.0716.0644-.1146.1432-.1289.2363-.1432.6159.0466 1.0098.5693 1.1816.6446.222 1.3142.222 2.0088 0 .8021-.2506 1.5648-.7233 2.2881-1.4179.7233-.6947 1.1387-1.017 1.2461-.9668.1146.0429.1504.1754.1074.3974-.1002.3509-.358.7305-.7734 1.1387zm-4.5762-1.7295c-.0429.0501-.0752.1074-.0966.1719-.0144.0573.0107.111.0751.1611.2507.1432.5228.197.8165.1611.2936-.0429.5406-.1539.7412-.333.2076-.1862.2972-.4117.2685-.6767-.0215-.0931-.0716-.1504-.1504-.1719-.0787-.0286-.1575-.0358-.2363-.0215-.5299.0931-1.0026.3295-1.418.709zm11.419.666c-.9597 1.1315-1.9014 1.9658-2.8252 2.503-.9167.5371-1.9014.7161-2.9541.5371-1.0456-.1862-1.4753-.8916-1.2891-2.1162.1289-.6159.3044-1.2175.5264-1.8047.5514-1.3679 1.11-2.7286 1.6758-4.0821.1862-.4869.3831-.9775.5908-1.4716.0501-.1075.0967-.2149.1396-.3223.0788-.179.1576-.3617.2364-.5479.1145-.3151-.0108-.4798-.376-.4941h-.9238c-.1075.0143-.2185.0286-.333.043-.1862.0143-.3724.0214-.5586.0214-.1791 0-.3474-.0465-.5049-.1396-.043-.0143-.0788-.0394-.1074-.0752-.0215-.043-.0323-.0895-.0323-.1396.0143-.0287.0358-.0609.0645-.0967.0358-.043.0788-.0716.1289-.086.1575-.0644.3222-.111.4941-.1396.444-.0215.8845-.0394 1.3213-.0537h.4512c.2864 0 .4977-.0108.6338-.0322.1432-.0215.2578-.0967.3437-.2256.086-.1289.1862-.3259.3008-.5909.0645-.1432.1432-.3007.2363-.4726.2364-.5013.4727-1.0134.709-1.5361.1074-.2364.2184-.4655.333-.6875.0931-.222.2399-.3939.4405-.5157.1933-.0931.3616-.0859.5048.0215.043.0287.0752.0752.0967.1397.0287.0644.043.1217.043.1718 0 .2793-.0716.5551-.2149.8272-.0286.0573-.0608.1253-.0966.2041-.0931.2578-.1934.5192-.3008.7842-.2077.4869-.4046.9847-.5908 1.4931-.0502.0931-.0537.1755-.0108.2471.0502.0716.1218.1074.2149.1074.5084.0143 1.0061.0215 1.4931.0215h.752c.7877.0143 1.1028.1253.9453.333-.1074.1218-.2256.1934-.3545.2149-.1217.0143-.2471.0107-.376-.0108h-.2363c-.8021.0502-1.597.0824-2.3848.0967-.3652 0-.6087.1647-.7304.4941-.1289.3151-.2543.6302-.376.9454-.1791.4153-.3473.8199-.5049 1.2138-.1575.3724-.3151.7484-.4727 1.128-.4082.9596-.802 1.9228-1.1816 2.8896-.2363.6302-.4225 1.2747-.5586 1.9336-.3008 1.196.1611 1.6543 1.3858 1.375 1.2031-.2865 2.4635-1.153 3.7812-2.5996.5729-.3653.7233-.2005.4512.4941zm16.0595-.4511c-.1575.0644-.3222.1181-.4941.1611-.043.0215-.0824.0394-.1182.0537-.1718.0644-.3437.1253-.5156.1826-.487.1576-.9847.3259-1.4931.5049-.3796.1074-.6768.3437-.8916.709-.351.5657-.7914 1.0062-1.3213 1.3213-.5228.3151-1.0564.5407-1.6006.6767-.5443.1289-1.0277.2113-1.4502.2471-.4154.0286-.6839.0358-.8057.0215h-.0537c-.1719.1074-.3437.3187-.5156.6338-.1719.3151-.3223.598-.4512.8486-.0286.0645-.0501.1217-.0644.1719-.709 1.4179-1.4109 2.8359-2.1055 4.2539-.3939.7877-.7878 1.5755-1.1817 2.3633-.1289.2793-.2792.5478-.4511.8056-.1576.2006-.3545.2399-.5908.1182-.1576-.1146-.197-.2721-.1182-.4727.0788-.2076.1647-.4153.2578-.623 1.2318-2.9147 2.5387-5.7972 3.9209-8.6475.4297-.8808.8343-1.7796 1.2139-2.6963.1718-.4225.3509-.8558.5371-1.2998.0143-.0429.0394-.0895.0752-.1396.0931-.2363.2041-.4655.333-.6875.0573-.0788.1647-.1289.3222-.1504.1576-.0215.2937 0 .4082.0644.1433.0931.2149.2328.2149.419 0 .0931-.0179.1898-.0537.29-.0287.0788-.0466.1576-.0537.2364-.0072.0787.0179.1575.0752.2363.1146.0143.2148 0 .3007-.043.086-.0501.1683-.1074.2471-.1719.0788-.0644.1719-.111.2793-.1396.0645-.0358.1289-.068.1934-.0967.3437-.1575.6839-.2936 1.0205-.4082.4368-.1361.8701-.1038 1.2998.0967.1862.1146.3258.2542.4189.4189.0931.1648.1647.3402.2149.5264.0501.1432.179.2184.3867.2256.2148.0072.4512-.0179.709-.0752.265-.0645.5049-.1289.7197-.1934.179-.0501.3079-.0823.3867-.0966.2149-.0502.4333-.0645.6553-.043.0645 0 .1217.0107.1719.0322.0573.0215.0859.0788.0859.1719 0 .0358-.0107.0752-.0322.1182-.0215.0358-.0501.0608-.086.0752zm-4.5117.7089c.1433-.0931.2292-.247.2578-.4619.0358-.2148.0144-.4225-.0644-.623-.0358-.0645-.086-.1074-.1504-.1289-.0573-.0287-.1182-.043-.1826-.043-.1289.0215-.2543.0609-.376.1182-1.3249.666-2.3955 1.6113-3.2119 2.8359-.1576.2865-.1397.4154.0537.3867.2005-.0358.4977-.1575.8916-.3652.3939-.2149.8021-.4583 1.2246-.7305.4225-.2793.7842-.5156 1.085-.709.2721-.1718.4297-.2649.4726-.2793zm9.0879-.1933c.2363-.2364.4333-.3688.5908-.3975.1576-.0286.2579-.0036.3008.0752.0502.0788.0215.1862-.0859.3223-.6302.7591-1.3356 1.4144-2.1162 1.9658-.7806.5514-1.5863.8701-2.417.9561-.8236.0859-1.3213-.3653-1.4932-1.3536-.1289-.9811.4655-2.9791 1.7832-5.9941 1.3177-3.015 2.3597-5.4857 3.126-7.4121.0644-.1719.1611-.3223.29-.4512.1719-.1719.376-.2112.6123-.1181.0788.0358.1576.093.2364.1718.0787.0788.1038.2184.0752.419-3.3874 8.0351-5.0274 12.4036-4.92 13.1054.1075.7019.5586.8773 1.3536.5264.802-.3581 1.4179-.7197 1.8476-1.085.4369-.3724.709-.6158.8164-.7304zm7.9603-.3438c.172.0931.186.3259.043.6983-.208.2721-.43.5263-.666.7627-.237.2363-.495.4476-.774.6338-.021 0-.032.0071-.032.0214-.186.1289-.383.2399-.591.333-1.711.6159-2.585.2543-2.621-1.0849-.695.6015-1.16.9704-1.396 1.1064-.5662.3366-1.1785.487-1.8373.4512-.487-.0286-.8165-.1755-.9883-.4404-.1791-.2722-.1647-.6374.0429-1.0957.3151-.7233.7627-1.3679 1.3428-1.9336.6804-.6302 1.4359-1.1351 2.2669-1.5147.444-.222.909-.3079 1.396-.2578.487.0287.781.3044.881.8272.043.1575.004.2972-.118.4189-.158.1432-.34.1755-.548.0967-.014 0-.036-.0036-.064-.0108-.022-.0071-.04-.0179-.054-.0322-.208-.2864-.419-.4046-.634-.3545-.208.043-.43.1361-.666.2793-1.103.6446-1.9228 1.5433-2.4599 2.6963-.0286.0501-.0465.1074-.0537.1719-.0072.0573.0107.1038.0537.1396.1289.043.2722.0358.4297-.0214.1576-.0645.3151-.154.4727-.2686.1575-.1217.2905-.222.3975-.3008.014-.0215.021-.0322.021-.0322.523-.4369 1.035-.8845 1.537-1.3428.222-.2363.497-.3688.827-.3974.472 0 .669.2112.591.6337-.043.1576-.09.3151-.14.4727-.186.6803-.193 1.0814-.022 1.2031.172.1146.434.1146.785 0 .358-.1217.712-.3473 1.063-.6767.358-.3366.659-.641.902-.9131.244-.2793.448-.3688.613-.2686zm6.058.2793c-.959 1.1315-1.901 1.9658-2.825 2.503-.917.5371-1.901.7161-2.954.5371-1.046-.1862-1.475-.8916-1.289-2.1162.129-.6159.304-1.2175.526-1.8047.552-1.3679 1.11-2.7286 1.676-4.0821.186-.4869.383-.9775.591-1.4716.05-.1075.097-.2149.14-.3223.078-.179.157-.3617.236-.5479.114-.3151-.011-.4798-.376-.4941H107.331c-.107.0143-.218.0286-.333.043-.186.0143-.372.0214-.559.0214-.179 0-.347-.0465-.504-.1396-.043-.0143-.079-.0394-.108-.0752-.021-.043-.032-.0895-.032-.1396.014-.0287.036-.0609.064-.0967.036-.043.079-.0716.129-.086.158-.0644.323-.111.494-.1396.444-.0215.885-.0394 1.322-.0537h.451c.286 0 .498-.0108.634-.0322.143-.0215.257-.0967.343-.2256.086-.1289.187-.3259.301-.5909.065-.1432.143-.3007.237-.4726.236-.5013.472-1.0134.709-1.5361.107-.2364.218-.4655.333-.6875.093-.222.239-.3939.44-.5157.193-.0931.362-.0859.505.0215.043.0287.075.0752.097.1397.028.0644.042.1217.042.1718 0 .2793-.071.5551-.214.8272-.029.0573-.061.1253-.097.2041-.093.2578-.193.5192-.301.7842-.208.4869-.404.9847-.591 1.4931-.05.0931-.053.1755-.01.2471.05.0716.121.1074.214.1074.509.0143 1.007.0215 1.494.0215h.752c.787.0143 1.102.1253.945.333-.108.1218-.226.1934-.355.2149-.121.0143-.247.0107-.376-.0108h-.236c-.802.0502-1.597.0824-2.385.0967-.365 0-.608.1647-.73.4941-.129.3151-.254.6302-.376.9454-.179.4153-.347.8199-.505 1.2138-.158.3724-.315.7484-.473 1.128-.408.9596-.802 1.9228-1.181 2.8896-.237.6302-.423 1.2747-.559 1.9336-.301 1.196.161 1.6543 1.386 1.375 1.203-.2865 2.463-1.153 3.781-2.5996.573-.3653.723-.2005.451.4941zm5.511 1.0635c-.415.4082-.899.7591-1.45 1.0527-.552.2865-1.014.4763-1.386.5694-.372.0859-.755.136-1.149.1504-.631.0286-1.211-.0573-1.741-.2579-.866-.3509-1.167-1.0205-.902-2.0087.251-.8523.759-1.5183 1.525-1.9981.767-.4798 1.558-.7126 2.374-.6982h.022c.208-.0144.405 0 .591.0429.315.1146.515.3008.601.5586.086.2578.029.5443-.172.8594-.458.6947-1.081 1.0814-1.869 1.1602-.522.0501-1.027.025-1.514-.0752-.093-.0144-.176.0107-.247.0752-.072.0644-.115.1432-.129.2363-.144.6159.046 1.0098.569 1.1816.645.222 1.314.222 2.009 0 .802-.2506 1.565-.7233 2.288-1.4179.723-.6947 1.139-1.017 1.246-.9668.115.0429.15.1754.107.3974-.1.3509-.358.7305-.773 1.1387zm-4.576-1.7295c-.043.0501-.075.1074-.097.1719-.014.0573.011.111.075.1611.251.1432.523.197.817.1611.293-.0429.54-.1539.741-.333.208-.1862.297-.4117.269-.6767-.022-.0931-.072-.1504-.151-.1719-.079-.0286-.157-.0358-.236-.0215-.53.0931-1.003.3295-1.418.709zm9.904.4082c-1.131.4225-1.948.7663-2.449 1.0313-.365.179-.577.3294-.634.4511-.05.1146-.007.3295.129.6446 0 .0143.011.0358.032.0644.158.3796.251.7735.28 1.1817.05.8235-.652 1.4-2.106 1.7294-1.447.3295-2.413.3402-2.9.0323-.494-.308-.645-.6983-.451-1.1709.186-.4727.676-.9525 1.471-1.4395s1.325-.8379 1.59-1.0527c.272-.2149.355-.4548.247-.7197-.036-.0931-.075-.1862-.118-.2793-.093-.222-.19-.4512-.29-.6875-.186-.4297-.265-.8522-.236-1.2676.021-.4154.171-.7627.451-1.042.286-.2865.727-.4404 1.321-.4619.337-.0143.637.0322.902.1396.265.1003.477.2901.634.5694.129.1933.09.3688-.118.5263-.136.1075-.283.1218-.44.043-.101-.043-.197-.1038-.29-.1826v-.0322c-.043-.0287-.083-.0573-.119-.086-.043-.0644-.089-.1146-.139-.1504-.186-.136-.376-.1754-.57-.1181-.186.0501-.325.1933-.419.4297-.064.1862-.096.3759-.096.5693.014.2363.068.4655.161.6875.064.1361.122.2614.172.376.122.3151.222.5335.301.6552.078.1146.171.1648.279.1504.114-.0215 1.131-.3867 3.051-1.0957.415-.136.533.0323.354.5049zm-4.651 4.1035c.501-.1718.712-.5084.634-1.0097 0-.0358-.008-.0752-.022-.1182-.029-.2721-.086-.4798-.172-.6231-.086-.1503-.279-.1468-.58.0108-.745.4225-1.432.9167-2.062 1.4824-.043.0501-.083.0967-.119.1397 0 0-.007.0107-.021.0322-.043.0573-.05.1217-.022.1933.029.0717.094.1075.194.1075.737.1146 1.461.0429 2.17-.2149z" fill="#fff"/></svg>