<svg width="307" height="187" viewBox="0 0 307 187" fill="none" xmlns="http://www.w3.org/2000/svg"><path d="M92.4941 39.2742c.2735.4102.0293 1.1979-.7324 2.3633-3.8672 5.9245-6.8099 12.3047-8.8281 19.1406-.8594 2.8516-1.6309 5.7194-2.3145 8.6036-.677 2.8841-1.302 5.7812-1.875 8.6914-.6445 3.1901-1.2955 6.3834-1.9531 9.58-.2734 1.2891-.6315 2.5554-1.0742 3.7989-.1302.345-.28.677-.4492.9961-.0326.0846-.0684.1627-.1074.2343-.1433.2865-.3516.5013-.625.6446-.2735.1432-.5664.2148-.879.2148h-.0488c-.6315-.013-1.1393-.2572-1.5234-.7324-.4297-.5729-.7813-1.1882-1.0547-1.8457-.5273-1.3737-.9277-2.7865-1.2012-4.2383-.4883-2.3763-.8398-4.7656-1.0547-7.168-.3711-3.7239-.651-7.4642-.8398-11.2207 0-.0846-.013-.1855-.0391-.3027-.013-.0716-.026-.1497-.039-.2344-.1302.1758-.2214.3418-.2735.4981-.0521.1562-.0911.3125-.1172.4687l-.039.1758c-.3581 1.5625-.7324 3.125-1.1231 4.6875-.3841 1.556-.8203 3.1022-1.3086 4.6387-.358 1.1718-.8105 2.3079-1.3574 3.4082-.2864.5468-.6217 1.0644-1.0058 1.5527-.3125.3711-.7129.6152-1.2012.7324-.4883.1237-.9701.0814-1.4453-.1269-.4688-.2018-.8399-.6055-1.1133-1.211-.3125-.7877-.5697-1.5885-.7715-2.4023-.3581-1.5495-.638-3.112-.8398-4.6875-.5144-3.6198-.8659-7.2656-1.0547-10.9375-.1107-2.3633-.0586-4.7266.1562-7.0898.0261-.3256.0814-.6478.166-.9668.1303-.3386.3874-.4948.7715-.4688.4167 0 .625.2018.625.6055-.013.957-.0488 1.9075-.1074 2.8515-.0716 1.5039-.0781 3.0013-.0195 4.4922.0586 1.4909.153 2.9883.2832 4.4922.1562 1.7774.3483 3.5514.5761 5.3223.1303 1.1653.2865 2.3242.4688 3.4765.1888 1.1524.4329 2.295.7324 3.4278.1563.5729.3581 1.123.6055 1.6504.1432.332.2832.5013.4199.5078.1367.0065.3125-.14.5274-.4395.1822-.2604.3515-.5338.5078-.8203.306-.5273.5664-1.0677.7812-1.6211.2149-.5534.4134-1.1165.5957-1.6894.5013-1.53.9473-3.0795 1.3379-4.6485.3971-1.569.7748-3.1478 1.1328-4.7363.0586-.2604.1172-.5111.1758-.752.2734-1.1197.5664-2.2363.8789-3.3496.0586-.2474.1237-.485.1953-.7129.0977-.358.2246-.7096.3809-1.0546.1758-.3451.472-.5241.8887-.5372.3385-.026.5957.0261.7714.1563.1823.1237.2963.3646.3418.7227.0717.5729.114 1.1556.127 1.748.0586 2.9492.2018 5.8984.4297 8.8477.0325.2864.0553.5729.0683.8593.1107 1.4909.2377 2.9851.3809 4.4825.1432 1.4974.332 2.9817.5664 4.4531.1563 1.0612.3483 2.1094.5762 3.1445.2278 1.0417.5143 2.0703.8593 3.0859 0 .0131.0066.0293.0196.0489.1172.3711.2539.7324.4101 1.084.1563.3515.3646.677.625.9765.1433-.0325.2409-.0911.293-.1758.0586-.0846.1042-.1692.1367-.2539.013-.0455.0261-.0813.0391-.1074.4883-1.276.8691-2.5814 1.1426-3.916.4297-2.0768.8528-4.1536 1.2695-6.2305.4297-2.1159.8594-4.2415 1.2891-6.3769.6119-3.0078 1.2955-5.9961 2.0507-8.9649.7618-2.9752 1.6309-5.9179 2.6075-8.8281 2.1484-6.3542 5.1432-12.2624 8.9843-17.7246.5404-.612.9473-.7096 1.2207-.293zm1.8067 35.0196c.5534-.6185.8431-.8562.8691-.7129.0326.1432-.0846.4785-.3515 1.0058-.267.5209-.6804.9668-1.2403 1.3379-.4101.2539-.7649.4265-1.0644.5176-.293.0846-.5599.1335-.8008.1465-.4753.026-.8399-.1107-1.0938-.4102-.2474-.2995-.4199-.6836-.5175-1.1523-.0977-.4753-.1693-.9636-.2149-1.4649-.0456-.319-.0879-.6054-.1269-.8593-.0586-.4037-.1758-.625-.3516-.6641-.1693-.0456-.4329.2116-.791.7715-.3711.5989-.6966 1.2598-.9766 1.9824-.2799.7227-.5273 1.429-.7422 2.1191-.013.0261-.026.0619-.039.1075-.0456.0976-.0814.1985-.1074.3027-.0847.2865-.1856.5664-.3028.8398-.0976.2279-.2669.3777-.5078.4493-.2344.0716-.4818.0553-.7422-.0489-.1693-.0716-.2832-.192-.3418-.3613-.0846-.2604-.1139-.5241-.0879-.791v-.0684c.0586-1.1328.0684-3.0175.0293-5.6543-.0325-2.1028-.0488-4.3652-.0488-6.7871 0-2.4218.0618-4.707.1855-6.8554.1237-2.1485.3353-3.8672.6348-5.1563.1302-.4687.3451-.8887.6445-1.2598.2995-.3776.6316-.5826.9961-.6152.3646-.0391.7064.2083 1.0254.7422.2149.4557.3483.9408.4004 1.4551.1432 1.5234.013 3.8639-.3906 7.0215-.3971 3.1575-.8138 5.9212-1.25 8.291-.4362 2.3698-.6543 4.3489-.6543 5.9375.1432-.2409.2865-.4981.4297-.7715.2018-.4037.4264-.804.6738-1.2012.2539-.4036.5501-.7454.8887-1.0254.345-.2799.7617-.4557 1.25-.5273.332-.0521.6673-.0293 1.0058.0683.3451.0977.5762.3353.6934.7129.1432.6576.1921 1.3575.1465 2.0996 0 .7878.1367 1.2859.4101 1.4942.2735.2083.612.2441 1.0157.1074.4101-.1367.8919-.5111 1.4453-1.123zm-7.2949-20.1954c-.0717.8139-.153 2.1745-.2442 4.0821-.0911 1.901-.1693 3.8086-.2344 5.7226-.0651 1.9141-.0976 3.5059-.0976 4.7754.1562-1.1458.345-2.6367.5664-4.4726.2213-1.8425.4167-3.737.5859-5.6836.1758-1.9466.2637-3.4082.2637-4.3848-.013-.5143-.0488-.8952-.1074-1.1426-.0586-.2539-.1563-.345-.293-.2734s-.2409.2539-.3125.5469c-.0716.2929-.1139.5696-.1269.83zm17.0601 20.2149c.144-.0846.284-.1497.42-.1953.137-.0456.225-.0423.264.0097.046.0521-.01.1693-.166.3516-.488.5599-1.074 1.0742-1.758 1.543-.677.4622-1.374.8528-2.09 1.1719-.56.2539-1.152.4557-1.777.6054-.6185.1498-1.2337.1823-1.8457.0977-.6055-.0847-1.1589-.3548-1.6602-.8106-.7617-.7031-1.0774-1.5625-.9472-2.5781.1106-.8073.4231-1.4909.9375-2.0508.5208-.5664 1.1751-.9505 1.9628-1.1523.6576-.1432 1.3152-.1595 1.9727-.0488.2995.0455.5729.1464.8201.3027.228.1758.352.3808.371.6152.026.2344-.062.459-.263.6738-.417.3711-.8988.5925-1.4457.6641-.612.1042-1.2272.1693-1.8457.1953-.2995 0-.511.0619-.6347.1856-.1172.1237-.1856.3353-.2051.6347-.0977.8138.1627 1.4779.7812 1.9922.3841.306.8496.4362 1.3965.3906.5534-.0455 1.1393-.192 1.7575-.4394.619-.2539 1.224-.5469 1.817-.8789.592-.3386 1.126-.6576 1.601-.957.202-.1302.381-.2377.537-.3223zm-6.7867-1.7383c0 .013-.0098.0195-.0293.0195-.026.0261-.0618.0586-.1074.0977-.0391.0326-.0781.0684-.1172.1074-.0326.0326-.0488.0554-.0488.0684.013.0456.1302.0586.3515.039.2214-.026.4655-.0651.7324-.1171.267-.0586.4883-.1335.6641-.2247.1823-.0976.2376-.2115.166-.3418-.0325-.039-.0748-.0716-.1269-.0976-.0456-.0326-.0977-.0553-.1563-.0684-.2604 0-.498.0521-.7129.1563-.2148.0976-.4199.2181-.6152.3613zm13.0567 1.7774c.124-.254.208-.3711.254-.3516.045.0195.055.1237.029.3125-.019.1823-.058.3906-.117.625-.085.3581-.231.7747-.44 1.25-.208.4687-.439.8952-.693 1.2793-.377.5338-.846.9375-1.406 1.2109-.553.267-1.058.3321-1.514.1953-.449-.1367-.709-.5631-.781-1.2793-.013-.5989.039-1.2565.156-1.9726.039-.2995.082-.5925.127-.8789 0-.1042-.026-.1823-.078-.2344-.052-.0586-.12-.0814-.205-.0684h-.195c-.358.0586-.723.0521-1.094-.0195-.443-.1302-.7-.3483-.772-.6543-.071-.3125-.065-.7194.02-1.2207.046-.3581.179-.625.4-.8008.222-.1823.482-.2571.782-.2246.416.0391.618.1986.605.4785-.013.28-.091.5795-.234.8985-.131.2669-.199.4915-.205.6738-.007.1758.146.2376.459.1856.071-.0196.149-.0424.234-.0684.117-.0456.251-.0846.4-.1172.15-.0391.345-.0488.586-.0293.287.013.476.1465.567.4004.097.2474.14.5599.127.9375-.013.3776-.049.7617-.108 1.1523-.071.4883-.107.9082-.107 1.2598 0 .3451.101.5469.303.6055.266.0716.664-.1693 1.191-.7227.534-.5599 1.103-1.5006 1.709-2.8222zm9.16-.0391c.143-.0846.283-.1497.42-.1953s.225-.0423.264.0097c.045.0521-.01.1693-.166.3516-.489.5599-1.075 1.0742-1.758 1.543-.677.4622-1.374.8528-2.09 1.1719-.56.2539-1.152.4557-1.777.6054-.619.1498-1.234.1823-1.846.0977-.605-.0847-1.159-.3548-1.66-.8106-.762-.7031-1.078-1.5625-.947-2.5781.11-.8073.423-1.4909.937-2.0508.521-.5664 1.175-.9505 1.963-1.1523.657-.1432 1.315-.1595 1.973-.0488.299.0455.573.1464.82.3027.228.1758.351.3808.371.6152.026.2344-.062.459-.264.6738-.416.3711-.898.5925-1.445.6641-.612.1042-1.227.1693-1.846.1953-.299 0-.511.0619-.634.1856-.118.1237-.186.3353-.206.6347-.097.8138.163 1.4779.782 1.9922.384.306.849.4362 1.396.3906.554-.0455 1.14-.192 1.758-.4394.619-.2539 1.224-.5469 1.816-.8789.593-.3386 1.127-.6576 1.602-.957.202-.1302.381-.2377.537-.3223zm-6.787-1.7383c0 .013-.01.0195-.029.0195-.026.0261-.062.0586-.108.0977-.039.0326-.078.0684-.117.1074-.032.0326-.049.0554-.049.0684.013.0456.13.0586.352.039.221-.026.465-.0651.732-.1171.267-.0586.489-.1335.664-.2247.183-.0976.238-.2115.166-.3418-.032-.039-.075-.0716-.127-.0976-.045-.0326-.097-.0553-.156-.0684-.26 0-.498.0521-.713.1563-.215.0976-.42.2181-.615.3613zm22.402 1.5234c.131-.0325.241-.0423.332-.0292.092.0065.14.039.147.0976.013.0521-.069.1367-.244.2539-.072.0391-.157.0944-.254.166-.345.2474-.746.5209-1.201.8203-.489.3321-.935.6381-1.338.918-.397.2734-.661.4818-.791.625-.144.2018-.235.4232-.274.6641-.032.2343-.055.4883-.068.7617-.02.2148-.042.4297-.068.6445-.372 2.3047-1 4.2709-1.885 5.8985-.879 1.6341-1.872 2.9329-2.979 3.8964-1.1.9701-2.174 1.6016-3.222 1.8946-1.055.2995-1.944.2604-2.666-.1172-.723-.3711-1.149-1.0775-1.28-2.1192-.071-.8463.101-1.7122.518-2.5976.417-.8789.973-1.722 1.67-2.5293.69-.8073 1.422-1.5495 2.197-2.2266.775-.6705 1.491-1.2272 2.149-1.6699.182-.1302.374-.2604.576-.3906.931-.6445 1.878-1.2663 2.841-1.8652.612-.3451.899-.8464.86-1.504v-.3027c-.02-.1888-.029-.3906-.029-.6055-.372.586-.896 1.1166-1.573 1.5918-.67.4753-1.36.8171-2.07 1.0254-.703.2019-1.305.1888-1.807-.039-.501-.2279-.761-.7585-.781-1.5918.02-.4297.143-.8236.371-1.1817.541-.957 1.293-1.709 2.256-2.2558.358-.1953.791-.3353 1.299-.42.508-.0911.996-.0846 1.465.0196.475.0976.856.3255 1.142.6836.072-.1172.176-.1921.313-.2246.137-.0391.263-.0586.381-.0586h.058c.534-.0521.785.192.752.7324-.013.3906-.026.778-.039 1.1621-.013.2865-.029.5664-.049.8398.02.3256.199.433.537.3223.345-.1172.762-.3125 1.25-.5859.56-.3255 1.062-.5599 1.504-.7032zm-6.269.5372c.599-.6055.928-1.071.986-1.3965-.143-.2604-.368-.4167-.674-.4688-.299-.0586-.605-.0553-.918.0098-.312.0586-.576.153-.791.2832-.592.3711-1.028.8236-1.308 1.3574-.274.5274-.375.9798-.303 1.3574.072.3711.348.4981.83.3809.488-.1172 1.214-.625 2.178-1.5234zm.81 4.2773c0-.0195.007-.0358.02-.0488.019-.0847.036-.1921.049-.3223.013-.1302.006-.2376-.02-.3223-.019-.0846-.071-.0976-.156-.039-.599.4166-1.227.8756-1.885 1.3769-.39.2865-.758.5502-1.103.791-.482.3581-1.045.8236-1.69 1.3965-.644.573-1.276 1.2142-1.894 1.9239-.619.7096-1.127 1.4355-1.524 2.1777-.403.7487-.605 1.4648-.605 2.1484.045.9766.319 1.5625.82 1.7578.501.2019 1.133.0814 1.895-.3613.755-.4427 1.539-1.1588 2.353-2.1484.82-.9896 1.566-2.194 2.236-3.6133.678-1.4128 1.179-2.985 1.504-4.7168zm11.426-4.5605c.124-.254.208-.3711.254-.3516.046.0195.055.1237.029.3125-.019.1823-.058.3906-.117.625-.084.3581-.231.7747-.439 1.25-.209.4687-.44.8952-.694 1.2793-.377.5338-.846.9375-1.406 1.2109-.553.267-1.058.3321-1.514.1953-.449-.1367-.709-.5631-.781-1.2793-.013-.5989.039-1.2565.156-1.9726.039-.2995.082-.5925.127-.8789 0-.1042-.026-.1823-.078-.2344-.052-.0586-.12-.0814-.205-.0684h-.195c-.358.0586-.723.0521-1.094-.0195-.443-.1302-.7-.3483-.771-.6543-.072-.3125-.065-.7194.019-1.2207.046-.3581.179-.625.401-.8008.221-.1823.481-.2571.781-.2246.416.0391.618.1986.605.4785-.013.28-.091.5795-.234.8985-.13.2669-.199.4915-.205.6738-.007.1758.146.2376.459.1856.071-.0196.15-.0424.234-.0684.117-.0456.251-.0846.401-.1172.149-.0391.345-.0488.585-.0293.287.013.476.1465.567.4004.098.2474.14.5599.127.9375-.013.3776-.049.7617-.108 1.1523-.071.4883-.107.9082-.107 1.2598 0 .3451.101.5469.303.6055.267.0716.664-.1693 1.191-.7227.534-.5599 1.104-1.5006 1.709-2.8222zm9.16-.0391c.144-.0846.283-.1497.42-.1953s.225-.0423.264.0097c.045.0521-.01.1693-.166.3516-.488.5599-1.074 1.0742-1.758 1.543-.677.4622-1.374.8528-2.09 1.1719-.56.2539-1.152.4557-1.777.6054-.619.1498-1.234.1823-1.846.0977-.605-.0847-1.159-.3548-1.66-.8106-.762-.7031-1.077-1.5625-.947-2.5781.11-.8073.423-1.4909.937-2.0508.521-.5664 1.175-.9505 1.963-1.1523.658-.1432 1.315-.1595 1.973-.0488.299.0455.573.1464.82.3027.228.1758.352.3808.371.6152.026.2344-.062.459-.263.6738-.417.3711-.899.5925-1.446.6641-.612.1042-1.227.1693-1.845.1953-.3 0-.512.0619-.635.1856-.117.1237-.186.3353-.205.6347-.098.8138.162 1.4779.781 1.9922.384.306.85.4362 1.396.3906.554-.0455 1.14-.192 1.758-.4394.619-.2539 1.224-.5469 1.817-.8789.592-.3386 1.126-.6576 1.601-.957.202-.1302.381-.2377.537-.3223zm-6.787-1.7383c0 .013-.01.0195-.029.0195-.026.0261-.062.0586-.108.0977-.039.0326-.078.0684-.117.1074-.032.0326-.049.0554-.049.0684.013.0456.131.0586.352.039.221-.026.465-.0651.732-.1171.267-.0586.489-.1335.664-.2247.183-.0976.238-.2115.166-.3418-.032-.039-.074-.0716-.126-.0976-.046-.0326-.098-.0553-.157-.0684-.26 0-.498.0521-.713.1563-.214.0976-.42.2181-.615.3613zm17.871 1.4356c-.176.5468-.53 1.1751-1.064 1.8847-.528.7031-1.188 1.1556-1.983 1.3574-.794.2019-1.481.1758-2.06-.0781-.58-.2604-.899-.9505-.957-2.0703-.658 1.2761-1.286 2.0931-1.885 2.4512-.592.3581-1.211.4948-1.855.4101-.73-.1172-1.221-.4004-1.475-.8496-.26-.4492-.348-.9668-.264-1.5527.085-.5925.264-1.1589.537-1.6992.215-.4037.511-.778.889-1.1231.384-.345.785-.6152 1.201-.8105.515-.2604 1.032-.3841 1.553-.3711.521.013 1.077.1855 1.67.5176.013.013.019 0 .019-.0391 0-.0586.013-.1302.04-.2148.032-.0912.084-.1628.156-.2149.195-.1432.426-.2148.693-.2148.267 0 .472.1334.615.4004.026.345-.009.7845-.107 1.3183-.215 1.1719-.215 2.015 0 2.5293s.592.7552 1.133.7227c.547-.0391 1.253-.5762 2.119-1.6114.866-1.0416 1.208-1.289 1.025-.7421zm-9.609 2.7539c.299.2148.641.1855 1.025-.0879.391-.2735.765-.6608 1.123-1.1621.358-.5013.658-1.0026.899-1.5039.247-.5013.384-.8724.41-1.1133-.729-.3906-1.354-.4558-1.875-.1953-.521.2539-.938.6738-1.25 1.2597-.306.5795-.488 1.1459-.547 1.6992-.059.5469.013.9148.215 1.1036zm16.084-2.4317c.358-.345.511-.4297.459-.2539-.046.1693-.241.4818-.586.9375-.345.4492-.775.9375-1.289 1.4649-.514.5273-1.058.9863-1.631 1.3769-.573.3841-1.117.5925-1.631.625-.631 0-1.139-.1855-1.523-.5566-.378-.3776-.648-.8724-.811-1.4844-.163-.6185-.231-1.2858-.205-2.002.033-.8007.062-1.6015.088-2.4023.013-.4036.026-.7975.039-1.1816.033-.6446.055-1.2891.068-1.9336.013-.2019-.019-.3711-.097-.5078-.078-.1368-.218-.2116-.42-.2247-.228-.013-.515-.0195-.86-.0195h-.771c-.3-.0325-.498-.1107-.596-.2344-.104-.1302-.026-.2604.235-.3906.182-.0716.403-.1107.664-.1172.254-.0065.504-.0032.752.0098.156.013.293.0195.41.0195.384 0 .618-.0586.703-.1758.085-.1237.137-.3645.156-.7226.026-.3776.046-.7585.059-1.1426.013-.2018.029-.4036.049-.6055 0-.2994.078-.5696.234-.8105.169-.2279.384-.3158.645-.2637.227.0586.354.2018.38.4297.02.3776.03.7585.03 1.1426.013.2148.013.4297 0 .6445 0 .2279.006.4655.019.7129-.013.3386.026.5534.117.6445.092.0847.316.127.674.127h1.738c.261 0 1.036-.0163 2.325-.0488 1.289-.0391 1.982.0651 2.08.3125.104.2409-.71.3808-2.442.4199-1.048.0586-1.858.0879-2.431.0879-.384-.013-.729-.0196-1.035-.0196-.515 0-.834.0912-.957.2735-.118.1758-.17.5338-.157 1.0742-.013.4622-.036 1.0221-.068 1.6797-.085 1.3476-.127 2.7213-.127 4.1211.033.9635.205 1.5885.518 1.875.312.2864.719.3418 1.22.166.502-.1823 1.042-.5013 1.621-.957.586-.4623 1.166-.9571 1.739-1.4844.123-.1628.273-.3158.449-.459.058-.0521.114-.1009.166-.1465zm15.068.9473c-.761.97-1.471 1.595-2.129 1.875-.657.2799-1.253.3483-1.787.2051-.527-.1433-.986-.3744-1.377-.6934-.384-.3255-.667-.6022-.849-.8301-.072-.0716-.124-.1204-.157-.1465.489.7553.83 1.7416 1.026 2.959.195 1.2175.192 2.2852-.01 3.2032-.189.6901-.557 1.1197-1.103 1.289-.541.1693-1.104.0326-1.69-.4101-.345-.2995-.618-.6576-.82-1.0743-.345-.6705-.602-1.3704-.772-2.0996-.273-1.0481-.449-2.1093-.527-3.1836-.078-1.0742-.104-2.1549-.078-3.2421.058-1.5625.215-3.1088.469-4.6387.26-1.5365.599-3.0632 1.015-4.5801.248-.9766.593-2.1126 1.035-3.4082.443-1.2956.99-2.5293 1.641-3.7012.651-1.1784 1.413-2.0801 2.285-2.7051.378-.2734.794-.4524 1.25-.5371 1.172-.1888 2.002-.0488 2.49.42.489.4622.707 1.1588.655 2.0898-.046.931-.277 2.002-.694 3.2129-.416 1.2109-.944 2.4609-1.582 3.75-.638 1.2891-1.299 2.5293-1.982 3.7207-.677 1.1849-1.306 2.2266-1.885 3.125-.579.8919-1.025 1.5462-1.338 1.9629-.091.1302-.192.2669-.303.4101-.045.0717-.104.1498-.175.2344 1.015 1.4714 1.914 2.4805 2.695 3.0274.781.5468 1.462.7877 2.041.7226.579-.0651 1.074-.2767 1.484-.6347.411-.3581.743-.7162.996-1.0743.274-.358.476-.5371.606-.5371.202.0586.241.2149.117.4688-.124.2474-.306.5208-.547.8203zm-8.359-4.4922c-.059.4167-.049.6836.029.8008.085.1107.27-.0358.557-.4395.443-.6119.993-1.4388 1.65-2.4804.658-1.0482 1.345-2.2071 2.061-3.4766.716-1.2695 1.36-2.5553 1.933-3.8574.573-1.3021.987-2.5196 1.241-3.6524.26-1.1328.276-2.0768.048-2.832-.11-.319-.309-.5143-.595-.5859-.287-.0716-.596-.0196-.928.1562-.703.3972-1.348 1.1068-1.934 2.1289-.586 1.0156-1.113 2.194-1.582 3.5352-.462 1.3346-.866 2.7018-1.211 4.1015-.345 1.3933-.625 2.6758-.839 3.8477-.215 1.1654-.359 2.0833-.43 2.7539zm.498 8.8086c.254.9896.478 1.696.674 2.1191.195.4232.325.4623.39.1172.065-.345.046-1.1686-.058-2.4707-.085-1.0026-.251-2.0605-.498-3.1738-.241-1.1198-.57-2.0182-.987-2.6953-.156.6771-.185 1.6146-.087 2.8125.104 1.1914.292 2.2884.566 3.291zm21.221-5.4785c.11-.0586.179-.0423.205.0488.032.0846-.036.2409-.205.4688-.378.4687-.759.8268-1.143 1.0742-.384.2409-.863.3483-1.436.3222-.13-.013-.234-.0065-.312.0196-.078.026-.153.0976-.225.2148-.071.0977-.143.1921-.214.2832h-.03c-.338.3841-.748.6348-1.23.752-.482.1107-.931.0748-1.348-.1074-.41-.1888-.71-.5567-.898-1.1036-.144-.4817-.157-.9668-.039-1.455.052-.2279.123-.4493.214-.6641-.462.2539-.999.4525-1.611.5957-.091.7031-.355 1.3281-.791 1.875-.436.5404-.941.9375-1.514 1.1914-.572.2474-1.116.2832-1.63.1074-.515-.1823-.902-.6445-1.163-1.3867-.156-.5599-.169-1.1198-.039-1.6797.17-.7422.469-1.3737.899-1.8945.43-.5274.937-.8822 1.523-1.0645.534-.1432 1.055-.1204 1.563.0684.508.1823.862.5729 1.064 1.1719.072.2995.108.5924.108.8789.885-.1693 1.585-.433 2.099-.791.261-.3451.573-.5892.938-.7325.364-.1432.768-.2213 1.211-.2343.787-.0456 1.282.3125 1.484 1.0742.117.4557.147.9147.088 1.3769-.013.0977-.036.1986-.068.3028-.013.0846-.026.1627-.039.2343-.013.2409.087.3484.302.3223.345-.0586.668-.166.967-.3223.3-.1562.58-.3418.84-.5566.143-.1302.286-.2604.43-.3906zm-11.094 2.8808c.358-.2018.657-.511.898-.9277.248-.4167.414-.8659.498-1.3477-.052-.0195-.114-.0292-.185-.0292-.404-.0131-.765-.0684-1.084-.1661-.313-.1041-.57-.306-.772-.6054-.228.4427-.358.9407-.39 1.4941-.026.5534.042 1.0026.205 1.3477.169.3385.446.4166.83.2343zm.322-3.8281c0 .2474.108.433.322.5567.215.1171.489.1888.821.2148-.013-.4102-.114-.7585-.303-1.0449-.072-.1042-.173-.1628-.303-.1758-.123-.013-.241.0195-.351.0977-.104.0781-.166.1953-.186.3515zm5.908 3.4863c.404-.1888.684-.511.84-.9668-.67-.4296-1.113-1.0384-1.328-1.8261-.215.3711-.345.8073-.391 1.3086-.039.5013.013.9147.157 1.2402.143.319.384.4004.722.2441zm1.143-1.8554c.117-.1563.182-.3483.195-.5762.013-.2279-.003-.4557-.049-.6836-.039-.2344-.094-.4134-.166-.5371-.071-.1302-.149-.166-.234-.1074-.234.2148-.316.5338-.244.957.071.4167.237.7324.498.9473zm18.525-.5371c.059-.1107.147-.1693.264-.1758.124-.0065.228.0683.312.2246.033.0391 0 .1497-.097.332-.091.1758-.215.3776-.371.6055-.157.2213-.306.4264-.449.6152-.144.1823-.245.3028-.303.3614-.645.7161-1.293 1.2434-1.944 1.582-.651.332-1.357.4036-2.119.2148-.761-.1953-1.614-.7389-2.558-1.6308-.144-.1563-.287-.3125-.43-.4688-.039-.0456-.075-.0879-.107-.1269-.157-.1758-.329-.1986-.518-.0684-.195.1432-.394.2865-.596.4297-.175.1302-.355.2506-.537.3613-.605.4167-1.243.7683-1.914 1.0547-.716.319-1.468.4427-2.256.3711-1.23-.1432-1.868-.8236-1.914-2.041-.013-.8594.169-1.6276.547-2.3047.384-.6836.915-1.1849 1.592-1.5039.683-.3255 1.468-.3906 2.353-.1953.098.0195.228.0488.391.0879.098.0325.218.0618.361.0879-.084-.2019-.162-.3809-.234-.5371-.13-.2605-.244-.4981-.342-.7129-.592-1.2175-1.074-2.6075-1.445-4.17-.371-1.569-.554-3.177-.547-4.8242.006-1.6471.28-3.1803.82-4.5996.547-1.4193 1.452-2.5879 2.715-3.5058.801-.5404 1.628-.8334 2.481-.879.852-.0455 1.656.14 2.412.5567.761.4167 1.38 1.0417 1.855 1.875.612 1.1458.99 2.3535 1.133 3.623.26 2.0508.218 3.9649-.127 5.7422-.345 1.7774-.954 3.4571-1.826 5.0391-.873 1.582-1.983 3.1185-3.33 4.6094-.13.1432-.199.2571-.205.3418-.007.0846.055.205.185.3613.274.3581.57.7064.889 1.0449.325.3386.687.6218 1.084.8496.56.2409 1.159.2442 1.797.0098.638-.2344 1.227-.599 1.767-1.0938.547-.4948.951-1.0091 1.211-1.5429zm-9.58.8593c.169-.1432.183-.3059.039-.4882-.084-.1042-.169-.2116-.254-.3223-.234-.2865-.501-.5794-.8-.8789-.3-.306-.612-.5371-.938-.6934-.319-.1562-.644-.1692-.976-.039-.456.2148-.831.5957-1.124 1.1425-.292.5404-.465 1.097-.517 1.67-.052.5729.059 1.0091.332 1.3086.273.2994.739.3287 1.396.0878 1.036-.4557 1.983-1.0514 2.842-1.7871zm2.168-2.1191c1.374-1.6211 2.399-3.2161 3.076-4.7852.684-1.569 1.146-3.4049 1.387-5.5078.072-.5143.104-1.1881.098-2.0215-.007-.8333-.082-1.7024-.225-2.6074-.143-.9114-.4-1.7383-.771-2.4804-.371-.7487-.892-1.2859-1.563-1.6114-.664-.332-1.517-.332-2.558 0-1.146.6706-1.996 1.5625-2.549 2.6758-.554 1.1068-.869 2.3405-.948 3.7012-.078 1.3607.01 2.7506.264 4.1699.261 1.4193.619 2.7669 1.074 4.043.463 1.2695.957 2.3763 1.485 3.3203.058.1172.117.2344.175.3515.157.3842.385.7325.684 1.045.046-.0391.091-.0749.137-.1075.084-.052.163-.1139.234-.1855zm13.74 3.5449c.306.2149.651.1856 1.036-.0879.384-.2734.755-.6608 1.113-1.1621.358-.5013.657-1.0026.898-1.5039.248-.5013.388-.8724.42-1.1133-.735-.3906-1.364-.4557-1.885-.1953-.52.2539-.937.6738-1.25 1.2598-.306.5794-.491 1.1458-.556 1.6992-.065.5469.01.9147.224 1.1035zm10.02-2.666c-.163.3581-.4.7227-.713 1.0938-.885 1.0872-1.712 1.7643-2.48 2.0312-.769.2669-1.495.2604-2.178-.0195-.677-.28-1.052-.9798-1.123-2.0996-.658 1.276-1.286 2.0931-1.885 2.4511-.592.3581-1.201.4948-1.826.4102-.749-.1172-1.247-.4004-1.494-.8496-.254-.4492-.336-.9668-.244-1.5528.084-.5924.26-1.1588.527-1.6992.215-.4036.508-.778.879-1.123.377-.3451.781-.6153 1.211-.8106.501-.2604 1.012-.3841 1.533-.3711.521.0131 1.077.1856 1.67.5176.013.013.019 0 .019-.039 0-.0586.013-.1302.039-.2149.033-.0911.085-.1627.157-.2148.195-.1433.429-.2149.703-.2149.273 0 .482.1335.625.4004.026.3451-.016.7845-.127 1.3184-.215 1.1719-.234 1.9987-.059 2.4804.183.4753.534.6967 1.055.6641.521-.0391 1.113-.3581 1.777-.957.599-.5599 1.228-1.556 1.885-2.9883 0-.1693.068-.2865.205-.3516.137-.0651.3-.0976.488-.0976.157 0 .293.039.411.1172.123.0781.208.2409.254.4882 0 .0847.009.2214.029.4102.019.1823.029.3451.029.4883.02.2148.039.3613.059.4394.019.0782.078.0749.176-.0097.104-.0847.263-.2865.478-.6055.371-.5729.824-1.0579 1.357-1.4551.502-.358 1.052-.5078 1.651-.4492.527.0521.872.3223 1.035.8106.085.2473.127.498.127.7519 0 .2474-.016.4981-.049.752-.026.2604-.052.5273-.078.8007-.02.0847-.029.1693-.029.2539-.098.931-.075 1.556.068 1.875.143.3125.54.3516 1.191.1172.652-.2409 1.163-.9277 1.534-2.0605.201-.625.315-.6771.341-.1563.033.5209-.117 1.0612-.449 1.6211-.325.5599-.732 1.0026-1.22 1.3282-.645.4492-1.244.6347-1.797.5566-.547-.0846-.925-.4036-1.133-.957-.208-.5599-.264-1.2631-.166-2.1094v-.1074c.032-.1433.065-.3548.098-.6348.039-.2799.065-.5697.078-.8691.013-.2995-.004-.5469-.049-.7422-.039-.1953-.124-.2637-.254-.2051-.345.1888-.687.5599-1.025 1.1133-.333.5469-.629 1.123-.889 1.7285-.254.599-.446 1.084-.576 1.4551-.046.1172-.088.2409-.127.3711l-.176.5078c-.202.4883-.537.6771-1.006.5664-.26-.0586-.404-.2181-.43-.4785-.019-.2019-.035-.3939-.048-.5762v-.3223c-.013-.8593-.033-1.7187-.059-2.5781zm24.062.3809c.059-.1107.147-.1693.264-.1758.124-.0065.228.0683.313.2246.032.0391 0 .1497-.098.332-.091.1758-.215.3776-.371.6055-.156.2213-.306.4264-.449.6152-.144.1823-.244.3028-.303.3614-.645.7161-1.292 1.2434-1.943 1.582-.651.332-1.358.4036-2.12.2148-.761-.1953-1.614-.7389-2.558-1.6308-.143-.1563-.287-.3125-.43-.4688-.039-.0456-.075-.0879-.107-.1269-.157-.1758-.329-.1986-.518-.0684-.195.1432-.394.2865-.596.4297-.175.1302-.354.2506-.537.3613-.605.4167-1.243.7683-1.914 1.0547-.716.319-1.468.4427-2.256.3711-1.23-.1432-1.868-.8236-1.914-2.041-.013-.8594.17-1.6276.547-2.3047.384-.6836.915-1.1849 1.592-1.5039.684-.3255 1.468-.3906 2.354-.1953.097.0195.227.0488.39.0879.098.0325.218.0618.361.0879-.084-.2019-.162-.3809-.234-.5371-.13-.2605-.244-.4981-.342-.7129-.592-1.2175-1.074-2.6075-1.445-4.17-.371-1.569-.553-3.177-.547-4.8242.007-1.6471.28-3.1803.82-4.5996.547-1.4193 1.452-2.5879 2.715-3.5058.801-.5404 1.628-.8334 2.481-.879.853-.0455 1.657.14 2.412.5567.762.4167 1.38 1.0417 1.855 1.875.612 1.1458.99 2.3535 1.133 3.623.261 2.0508.218 3.9649-.127 5.7422-.345 1.7774-.954 3.4571-1.826 5.0391-.872 1.582-1.982 3.1185-3.33 4.6094-.13.1432-.199.2571-.205.3418-.007.0846.055.205.185.3613.274.3581.57.7064.889 1.0449.326.3386.687.6218 1.084.8496.56.2409 1.159.2442 1.797.0098.638-.2344 1.227-.599 1.768-1.0938.546-.4948.95-1.0091 1.21-1.5429zm-9.58.8593c.17-.1432.183-.3059.039-.4882-.084-.1042-.169-.2116-.253-.3223-.235-.2865-.502-.5794-.801-.8789-.3-.306-.612-.5371-.938-.6934-.319-.1562-.644-.1692-.976-.039-.456.2148-.83.5957-1.123 1.1425-.293.5404-.466 1.097-.518 1.67-.052.5729.059 1.0091.332 1.3086.274.2994.739.3287 1.397.0878 1.035-.4557 1.982-1.0514 2.841-1.7871zm2.168-2.1191c1.374-1.6211 2.399-3.2161 3.077-4.7852.683-1.569 1.145-3.4049 1.386-5.5078.072-.5143.104-1.1881.098-2.0215-.007-.8333-.081-1.7024-.225-2.6074-.143-.9114-.4-1.7383-.771-2.4804-.371-.7487-.892-1.2859-1.563-1.6114-.664-.332-1.517-.332-2.558 0-1.146.6706-1.996 1.5625-2.549 2.6758-.554 1.1068-.869 2.3405-.947 3.7012-.079 1.3607.009 2.7506.263 4.1699.261 1.4193.619 2.7669 1.074 4.043.463 1.2695.958 2.3763 1.485 3.3203.058.1172.117.2344.176.3515.156.3842.384.7325.683 1.045.046-.0391.091-.0749.137-.1075.085-.052.163-.1139.234-.1855zM92.8848 138.098c.1302-.032.2409-.042.332-.029.0911.007.14.039.1465.098.013.052-.0684.137-.2442.254-.0716.039-.1562.094-.2539.166-.345.247-.7454.521-1.2011.82-.4883.332-.9343.638-1.3379.918-.3972.273-.6608.482-.791.625-.1433.202-.2344.423-.2735.664-.0325.234-.0553.488-.0683.762-.0196.215-.0424.429-.0684.644-.3711 2.305-.9993 4.271-1.8848 5.899-.8789 1.634-1.8717 2.933-2.9785 3.896-1.1002.97-2.1745 1.602-3.2226 1.895-1.0547.299-1.9434.26-2.6661-.117-.7226-.372-1.149-1.078-1.2792-2.12-.0717-.846.1009-1.712.5175-2.597.4167-.879.9733-1.722 1.6699-2.53.6902-.807 1.4226-1.549 2.1973-2.226.7748-.671 1.4909-1.227 2.1485-1.67.1822-.13.3743-.26.5761-.391.931-.644 1.8783-1.266 2.8418-1.865.612-.345.8985-.846.8594-1.504v-.302c-.0195-.189-.0293-.391-.0293-.606-.3711.586-.8952 1.117-1.5723 1.592-.6705.475-1.3606.817-2.0703 1.025-.7031.202-1.3053.189-1.8066-.039-.5013-.228-.7617-.758-.7813-1.592.0196-.429.1433-.823.3711-1.181.5404-.957 1.2923-1.709 2.2559-2.256.3581-.195.791-.335 1.2988-.42.5078-.091.9961-.085 1.4649.019.4752.098.8561.326 1.1425.684.0716-.117.1758-.192.3125-.225.1368-.039.2637-.058.3809-.058h.0586c.5338-.052.7845.192.7519.732-.013.391-.026.778-.039 1.162-.013.287-.0293.567-.0488.84.0195.326.1985.433.5371.323.345-.118.7617-.313 1.25-.586.5599-.326 1.0612-.56 1.5039-.704zm-6.2696.538c.599-.606.9278-1.071.9864-1.397-.1433-.26-.3679-.417-.6739-.469-.2994-.058-.6054-.055-.9179.01-.3125.059-.5762.153-.791.283-.5925.371-1.0287.824-1.3086 1.358-.2735.527-.3744.98-.3028 1.357.0716.371.3483.498.8301.381.4883-.117 1.2142-.625 2.1777-1.523zm.8106 4.277c0-.02.0065-.036.0195-.049.0195-.085.0358-.192.0488-.322.0131-.13.0066-.238-.0195-.322-.0195-.085-.0716-.098-.1562-.04-.599.417-1.2273.876-1.8848 1.377-.3906.287-.7585.551-1.1035.791-.4818.359-1.0449.824-1.6895 1.397-.6445.573-1.276 1.214-1.8945 1.924-.6185.709-1.1263 1.435-1.5234 2.177-.4037.749-.6055 1.465-.6055 2.149.0456.976.319 1.562.8203 1.758.5013.202 1.1328.081 1.8945-.362.7552-.442 1.5397-1.158 2.3535-2.148.8204-.99 1.5658-2.194 2.2364-3.613.6771-1.413 1.1784-2.985 1.5039-4.717zm11.4258-4.561c.1237-.254.2083-.371.2539-.351.0455.019.0553.123.0293.312-.0196.183-.0586.391-.1172.625-.0847.358-.2311.775-.4395 1.25-.2083.469-.4394.895-.6933 1.28-.3776.533-.8464.937-1.4063 1.211-.5534.266-1.0579.332-1.5137.195-.4492-.137-.7096-.563-.7812-1.279-.013-.599.0391-1.257.1562-1.973.0391-.3.0814-.593.127-.879 0-.104-.026-.182-.0781-.234-.0521-.059-.1205-.082-.2051-.069h-.1953c-.3581.059-.7227.052-1.0938-.019-.4427-.13-.6998-.349-.7715-.655-.0716-.312-.0651-.719.0196-1.22.0456-.358.179-.625.4004-.801.2213-.182.4817-.257.7812-.225.4167.039.6185.199.6055.479-.013.28-.0912.579-.2344.898-.1302.267-.1986.492-.2051.674-.0065.176.1465.238.459.186.0716-.02.1498-.043.2344-.069.1172-.045.2506-.084.4004-.117.1497-.039.345-.049.5859-.029.2865.013.4753.146.5664.4.0977.248.14.56.127.938-.013.377-.0488.761-.1074 1.152-.0717.488-.1075.908-.1075 1.26 0 .345.1009.547.3028.605.2669.072.664-.169 1.1914-.722.5338-.56 1.1035-1.501 1.709-2.823zm9.1604-.039c.143-.084.283-.149.42-.195.136-.046.224-.042.263.01.046.052-.009.169-.166.351-.488.56-1.074 1.075-1.758 1.543-.677.463-1.373.853-2.089 1.172-.56.254-1.153.456-1.778.606-.618.149-1.233.182-1.845.097-.606-.084-1.1593-.355-1.6606-.81-.7617-.703-1.0774-1.563-.9472-2.578.1106-.808.4231-1.491.9375-2.051.5208-.567 1.1753-.951 1.9633-1.153.657-.143 1.315-.159 1.972-.048.3.045.573.146.821.302.227.176.351.381.371.616.026.234-.062.459-.264.673-.417.372-.898.593-1.445.665-.612.104-1.228.169-1.846.195-.3 0-.511.062-.635.185-.117.124-.185.336-.205.635-.098.814.163 1.478.781 1.992.384.306.85.437 1.397.391.553-.046 1.139-.192 1.758-.44.618-.253 1.224-.546 1.816-.878.592-.339 1.126-.658 1.602-.957.201-.131.38-.238.537-.323zm-6.787-1.738c0 .013-.01.02-.03.02-.026.026-.062.058-.107.097-.039.033-.078.069-.117.108-.033.032-.049.055-.049.068.013.046.13.059.351.039.222-.026.466-.065.733-.117.267-.059.488-.134.664-.225.182-.097.238-.211.166-.342-.033-.039-.075-.071-.127-.097-.046-.033-.098-.056-.156-.069-.261 0-.498.053-.713.157-.215.097-.42.218-.615.361zm17.871 1.436c-.176.546-.531 1.175-1.065 1.884-.527.703-1.188 1.156-1.982 1.358-.794.202-1.481.176-2.061-.078-.579-.261-.898-.951-.957-2.071-.657 1.276-1.286 2.093-1.885 2.451-.592.359-1.21.495-1.855.411-.729-.118-1.221-.401-1.475-.85-.26-.449-.348-.967-.263-1.553.084-.592.263-1.159.537-1.699.215-.404.511-.778.889-1.123.384-.345.784-.615 1.201-.811.514-.26 1.032-.384 1.552-.371.521.013 1.078.186 1.67.518.013.013.02 0 .02-.039 0-.059.013-.13.039-.215.032-.091.085-.163.156-.215.195-.143.427-.215.694-.215.266 0 .472.134.615.401.026.345-.01.784-.108 1.318-.214 1.172-.214 2.015 0 2.529.215.515.593.756 1.133.723.547-.039 1.253-.576 2.119-1.611.866-1.042 1.208-1.289 1.026-.742zm-9.61 2.753c.3.215.642.186 1.026-.087.39-.274.765-.661 1.123-1.163.358-.501.657-1.002.898-1.503.248-.502.384-.873.41-1.114-.729-.39-1.354-.455-1.875-.195-.52.254-.937.674-1.25 1.26-.306.579-.488 1.146-.547 1.699-.058.547.014.915.215 1.103zm16.084-2.431c.358-.345.511-.43.459-.254-.045.169-.241.482-.586.937-.345.45-.774.938-1.289 1.465-.514.528-1.058.987-1.631 1.377-.572.384-1.116.593-1.63.625-.632 0-1.14-.185-1.524-.556-.377-.378-.648-.873-.81-1.485-.163-.618-.232-1.286-.205-2.002.032-.801.061-1.601.087-2.402.013-.404.026-.798.039-1.182.033-.644.056-1.289.069-1.933.013-.202-.02-.371-.098-.508s-.218-.212-.42-.225c-.228-.013-.514-.019-.859-.019h-.772c-.299-.033-.498-.111-.595-.235-.104-.13-.026-.26.234-.39.182-.072.404-.111.664-.117.254-.007.505-.004.752.009.156.013.293.02.41.02.384 0 .619-.059.703-.176.085-.124.137-.365.157-.723.026-.377.045-.758.058-1.142.013-.202.029-.404.049-.606 0-.299.078-.569.234-.81.17-.228.385-.316.645-.264.228.059.355.202.381.43.019.377.029.758.029 1.142.013.215.013.43 0 .645 0 .228.007.465.02.713-.013.338.026.553.117.644.091.085.316.127.674.127h1.738c.26 0 1.035-.016 2.324-.049 1.289-.039 1.983.066 2.08.313.104.241-.709.381-2.441.42-1.048.058-1.859.088-2.432.088-.384-.013-.729-.02-1.035-.02-.514 0-.833.091-.957.274-.117.175-.169.534-.156 1.074-.013.462-.036 1.022-.069 1.68-.084 1.347-.127 2.721-.127 4.121.033.963.205 1.588.518 1.875.313.286.719.341 1.221.166.501-.183 1.041-.502 1.621-.957.586-.463 1.165-.957 1.738-1.485.124-.162.274-.315.449-.459.059-.052.114-.101.166-.146zm20.166-.069c.059-.11.147-.169.264-.175.124-.007.228.068.312.224.033.039 0 .15-.097.332-.091.176-.215.378-.371.606-.156.221-.306.426-.449.615-.144.182-.245.303-.303.361-.645.717-1.293 1.244-1.944 1.582-.651.332-1.357.404-2.119.215-.761-.195-1.614-.739-2.558-1.631-.144-.156-.287-.312-.43-.468-.039-.046-.075-.088-.107-.127-.157-.176-.329-.199-.518-.069-.195.144-.394.287-.596.43-.175.13-.355.251-.537.361-.605.417-1.243.769-1.914 1.055-.716.319-1.468.443-2.256.371-1.23-.143-1.868-.823-1.914-2.041-.013-.859.169-1.628.547-2.305.384-.683.915-1.184 1.592-1.504.683-.325 1.468-.39 2.353-.195.098.02.228.049.391.088.098.033.218.062.361.088-.084-.202-.162-.381-.234-.537-.13-.261-.244-.498-.342-.713-.592-1.217-1.074-2.607-1.445-4.17-.371-1.569-.554-3.177-.547-4.824.007-1.647.28-3.181.82-4.6.547-1.419 1.452-2.588 2.715-3.506.801-.54 1.628-.833 2.481-.879.852-.045 1.657.14 2.412.557.761.417 1.38 1.042 1.855 1.875.612 1.146.99 2.354 1.133 3.623.26 2.051.218 3.965-.127 5.742-.345 1.778-.954 3.457-1.826 5.039-.873 1.582-1.983 3.119-3.33 4.61-.13.143-.199.257-.205.342-.007.084.055.205.185.361.274.358.57.706.889 1.045.325.338.687.622 1.084.849.56.241 1.159.245 1.797.01.638-.234 1.227-.599 1.767-1.094.547-.494.951-1.009 1.211-1.543zm-9.58.86c.17-.143.183-.306.039-.488-.084-.105-.169-.212-.254-.323-.234-.286-.501-.579-.8-.879-.3-.306-.612-.537-.938-.693-.319-.156-.644-.169-.976-.039-.456.215-.831.596-1.123 1.143-.293.54-.466 1.097-.518 1.669-.052.573.059 1.01.332 1.309.273.3.739.329 1.396.088 1.036-.456 1.983-1.051 2.842-1.787zm2.168-2.119c1.374-1.621 2.399-3.216 3.076-4.785.684-1.569 1.146-3.405 1.387-5.508.072-.515.104-1.188.098-2.022-.007-.833-.082-1.702-.225-2.607-.143-.912-.4-1.738-.771-2.481-.371-.748-.892-1.285-1.563-1.611-.664-.332-1.517-.332-2.558 0-1.146.671-1.996 1.563-2.549 2.676-.554 1.107-.869 2.34-.948 3.701-.078 1.361.01 2.751.264 4.17.261 1.419.619 2.767 1.074 4.043.463 1.269.957 2.376 1.485 3.32.058.117.117.235.176.352.156.384.384.732.683 1.045.046-.039.091-.075.137-.108.084-.052.163-.114.234-.185zm13.555 1.347c.124-.254.208-.371.254-.351.045.019.055.123.029.312-.019.183-.058.391-.117.625-.085.358-.231.775-.44 1.25-.208.469-.439.895-.693 1.28-.377.533-.846.937-1.406 1.211-.554.266-1.058.332-1.514.195-.449-.137-.709-.563-.781-1.279-.013-.599.039-1.257.156-1.973.039-.3.082-.593.127-.879 0-.104-.026-.182-.078-.234-.052-.059-.12-.082-.205-.069h-.195c-.358.059-.723.052-1.094-.019-.443-.13-.7-.349-.772-.655-.071-.312-.065-.719.02-1.22.045-.358.179-.625.4-.801.222-.182.482-.257.782-.225.416.039.618.199.605.479-.013.28-.091.579-.234.898-.131.267-.199.492-.205.674-.007.176.146.238.459.186.071-.02.149-.043.234-.069.117-.045.251-.084.4-.117.15-.039.345-.049.586-.029.287.013.476.146.567.4.097.248.14.56.127.938-.013.377-.049.761-.108 1.152-.071.488-.107.908-.107 1.26 0 .345.101.547.303.605.266.072.664-.169 1.191-.722.534-.56 1.103-1.501 1.709-2.823zm1.377-4.677c-.085.071-.189.117-.313.136-.117.02-.218.01-.302-.029-.072-.059-.121-.133-.147-.225-.019-.097-.029-.211-.029-.341 0-.026.006-.052.019-.078.013-.118.043-.235.088-.352.13-.313.404-.456.821-.43.143.02.253.078.332.176.078.098.094.212.048.342-.097.319-.27.586-.517.801zm4.433 4.033c-.071.143-.159.293-.263.449-.645 1.094-1.218 1.914-1.719 2.461-.501.54-1.064.843-1.689.908-.619.065-1.208-.182-1.768-.742-.215-.247-.374-.531-.479-.85-.097-.325-.13-.644-.097-.957v-.322c0-.332.013-.716.039-1.152.026-.436.088-.83.185-1.182.105-.351.264-.563.479-.635.618-.156.957.059 1.016.645 0 .189-.01.377-.03.566-.013.098-.019.189-.019.274l-.039.82c0 .215-.007.43-.02.645-.019.944.189 1.507.625 1.689.443.176.957-.104 1.543-.84.586-.742 1.159-1.627 1.719-2.656.182-.332.312-.58.39-.742.085-.163.183-.28.293-.352.144-.058.31-.088.499-.088.143 0 .276.039.4.117.13.079.211.241.244.489.013.084.02.169.02.254.013.045.019.088.019.127.033.201.049.374.049.517 0 .215.013.362.039.44.026.078.085.075.176-.01.097-.085.254-.287.469-.606.371-.573.83-1.058 1.376-1.455.502-.358 1.052-.507 1.651-.449.514.052.859.322 1.035.811.072.247.107.498.107.752 0 .247-.016.498-.048.752-.013.26-.033.527-.059.8l-.049.254c-.084.931-.055 1.556.088 1.875.143.313.361.417.654.313.293-.111.69-.563 1.192-1.358.501-.794.797-1.299.888-1.513.098-.215.176-.205.235.029.058.234-.104.765-.488 1.592-.378.82-.847 1.455-1.407 1.904-.56.443-1.084.606-1.572.488-.482-.117-.827-.452-1.035-1.006-.208-.559-.27-1.263-.186-2.109 0-.013.007-.049.02-.107.019-.144.045-.355.078-.635.039-.28.065-.57.078-.869.013-.3 0-.547-.039-.742-.032-.196-.12-.264-.264-.206-.345.189-.683.56-1.015 1.114-.326.547-.622 1.123-.889 1.728-.26.599-.449 1.084-.566 1.455-.046.118-.088.241-.127.371-.059.17-.124.339-.196.508-.188.489-.517.677-.986.567-.26-.059-.41-.218-.449-.479-.02-.202-.029-.394-.029-.576 0-.117-.007-.225-.02-.322-.013-.918-.033-1.836-.059-2.754zm18.194.625c.195-.169.329-.251.4-.244.072.006.098.062.078.166-.019.097-.071.208-.156.332-.215.319-.488.648-.82.986-.332.332-.57.563-.713.693-.97.873-1.843 1.345-2.617 1.416-.775.072-1.449-.087-2.022-.478-.573-.397-1.035-.85-1.387-1.358-.351-.507-.582-.904-.693-1.191-.045.085-.075.27-.088.557-.013.286-.019.625-.019 1.015-.013.384-.03.762-.049 1.133-.013.371-.049.674-.108.908-.084.456-.361.655-.83.596-.332-.039-.52-.212-.566-.518-.026-.195-.039-.393-.039-.595v-1.27c.013-1.718.036-3.431.068-5.136 0-.827.039-2.136.117-3.926.079-1.791.206-3.685.381-5.684.183-1.999.423-3.721.723-5.166.117-.573.309-1.113.576-1.621.274-.514.697-.843 1.27-.986.247-.052.488-.007.722.136.235.144.446.43.635.86.182.456.283.928.303 1.416.039 1.087-.091 2.461-.391 4.121-.299 1.66-.674 3.385-1.123 5.176-.443 1.79-.862 3.424-1.26 4.902-.227.833-.423 1.55-.586 2.148.176-.312.411-.664.704-1.054.293-.397.576-.713.849-.947.645-.515 1.38-.694 2.207-.538.918.202 1.198.726.84 1.573-.384.742-.859 1.312-1.426 1.709-.566.39-1.113.693-1.64.908.553.775 1.181 1.393 1.884 1.855.502.287 1.052.332 1.651.137.605-.195 1.188-.495 1.748-.898.56-.411 1.019-.788 1.377-1.133zm-7.09-17.119c-.247 1.614-.469 3.652-.664 6.113-.189 2.454-.319 4.476-.391 6.064.241-.644.518-1.725.83-3.242.319-1.517.616-3.089.889-4.717.273-1.627.466-2.936.576-3.925.117-1.088.101-1.794-.049-2.119-.149-.333-.345-.336-.586-.01-.234.319-.436.931-.605 1.836zm-.693 16.406c.058.032.218.006.478-.078.267-.091.56-.215.879-.371.326-.157.589-.342.791-.557.488-.547.706-.918.654-1.113-.045-.202-.221-.274-.527-.215-.299.052-.592.202-.879.449-.325.313-.638.658-.937 1.035-.293.371-.446.655-.459.85zm13.554.078c0 .15-.315.417-.947.801-.631.377-1.097.664-1.396.859-.3.189-.45.306-.45.352.059.13.121.348.186.654.065.306.088.638.068.996-.013.358-.127.677-.342.957-.214.28-.572.449-1.074.508-.501.039-.95-.036-1.347-.225-.391-.195-.635-.475-.733-.839-.104-.365.016-.791.361-1.28.228-.273.502-.511.821-.713.11-.071.224-.149.342-.234-.385-.417-.749-.843-1.094-1.279-.345-.436-.567-.827-.664-1.172-.104-.397-.036-.772.205-1.123.234-.352.644-.557 1.23-.615.287-.026.554-.01.801.048.254.052.488.173.703.362.046.045.078.097.098.156.019.052.01.12-.029.205-.072.13-.179.195-.323.195-.104 0-.205-.013-.302-.039-.105-.045-.199-.088-.284-.127-.058-.032-.114-.062-.166-.088-.188-.071-.335-.061-.439.03-.098.091-.147.231-.147.42.013.332.15.687.411 1.064.26.378.517.726.771 1.045.104.111.192.218.264.322.071.072.26.062.566-.029.306-.098.866-.361 1.68-.791.82-.43 1.23-.57 1.23-.42zm-4.365 4.395c.189-.013.313-.118.371-.313.059-.195.078-.41.059-.644-.013-.235-.026-.411-.039-.528-.026-.071-.072-.117-.137-.137-.065-.019-.127-.016-.186.01-.214.17-.374.384-.478.645-.098.26-.088.488.029.683.039.072.091.134.156.186.066.052.14.085.225.098zm20.635-2.666v-.02c.058-.059.198-.186.42-.381.221-.202.452-.39.693-.566.248-.183.423-.277.527-.283.111-.013.088.146-.068.478-.026.046-.065.101-.117.166-.052.059-.098.117-.137.176-.019.013-.036.029-.049.049-1.002 1.074-1.787 1.819-2.353 2.236-.567.41-1.126.602-1.68.576-.573-.058-.96-.28-1.162-.664-.202-.39-.299-.862-.293-1.416.007-.56.052-1.126.137-1.699.091-.593.127-1.097.107-1.514-.013-.423-.156-.67-.429-.742-.254-.019-.515.192-.782.635-.267.436-.521.944-.761 1.523-.241.58-.443 1.091-.606 1.533-.085.241-.146.414-.185.518-.118.228-.284.378-.498.449-.215.072-.443.059-.684-.039-.143-.091-.231-.215-.264-.371-.039-.345-.052-.703-.039-1.074.013-.241.013-.475 0-.703v-.215-.342c0-.117-.013-.218-.039-.303-.019-.091-.065-.136-.137-.136-.11-.013-.247.12-.41.4-.156.28-.316.615-.478 1.006-.163.384-.31.732-.44 1.045-.117.273-.195.459-.234.556-.02.046-.042.092-.068.137-.131.254-.261.511-.391.772-.111.215-.296.341-.557.381-.527.091-.814-.124-.859-.645-.039-1.328-.075-2.659-.108-3.994 0-.345.215-.466.645-.361.43.097.667.319.713.664.039.56.101.843.185.849.092.007.274-.241.547-.742.144-.241.293-.485.45-.732.182-.326.432-.612.751-.86.326-.215.639-.276.938-.185.306.084.544.312.713.683.071.157.143.241.215.254.071.013.143-.019.215-.097.071-.079.143-.173.214-.284.059-.117.124-.218.196-.302.403-.443.882-.749 1.435-.918.56-.176 1.065-.17 1.514.019.456.182.719.589.791 1.221.026.755-.026 1.527-.156 2.314-.052.378-.095.736-.127 1.075-.026.735.107 1.139.4 1.21.293.072.651-.042 1.074-.341.424-.306.834-.638 1.231-.996zm10.264-1.114c.143-.084.283-.149.419-.195.137-.046.225-.042.264.01.046.052-.01.169-.166.351-.488.56-1.074 1.075-1.758 1.543-.677.463-1.373.853-2.09 1.172-.559.254-1.152.456-1.777.606-.618.149-1.234.182-1.846.097-.605-.084-1.158-.355-1.66-.81-.762-.703-1.077-1.563-.947-2.578.111-.808.423-1.491.937-2.051.521-.567 1.176-.951 1.963-1.153.658-.143 1.315-.159 1.973-.048.299.045.573.146.82.302.228.176.352.381.371.616.026.234-.061.459-.263.673-.417.372-.899.593-1.446.665-.612.104-1.227.169-1.845.195-.3 0-.511.062-.635.185-.117.124-.186.336-.205.635-.098.814.163 1.478.781 1.992.384.306.85.437 1.397.391.553-.046 1.139-.192 1.757-.44.619-.253 1.224-.546 1.817-.878.592-.339 1.126-.658 1.601-.957.202-.131.381-.238.538-.323zm-6.788-1.738c0 .013-.009.02-.029.02-.026.026-.062.058-.107.097-.039.033-.078.069-.118.108-.032.032-.048.055-.048.068.013.046.13.059.351.039.222-.026.466-.065.733-.117.267-.059.488-.134.664-.225.182-.097.237-.211.166-.342-.033-.039-.075-.071-.127-.097-.046-.033-.098-.056-.156-.069-.261 0-.499.053-.713.157-.215.097-.42.218-.616.361zm16.241 1.738c.143-.084.283-.149.42-.195.136-.046.224-.042.263.01.046.052-.01.169-.166.351-.488.56-1.074 1.075-1.758 1.543-.677.463-1.373.853-2.089 1.172-.56.254-1.153.456-1.778.606-.618.149-1.234.182-1.845.097-.606-.084-1.159-.355-1.661-.81-.761-.703-1.077-1.563-.947-2.578.111-.808.423-1.491.938-2.051.52-.567 1.175-.951 1.962-1.153.658-.143 1.316-.159 1.973-.048.3.045.573.146.82.302.228.176.352.381.372.616.026.234-.062.459-.264.673-.417.372-.899.593-1.445.665-.612.104-1.228.169-1.846.195-.3 0-.511.062-.635.185-.117.124-.185.336-.205.635-.098.814.163 1.478.781 1.992.384.306.85.437 1.397.391.553-.046 1.139-.192 1.758-.44.618-.253 1.224-.546 1.816-.878.592-.339 1.126-.658 1.602-.957.201-.131.38-.238.537-.323zm-6.787-1.738c0 .013-.01.02-.03.02-.026.026-.062.058-.107.097-.039.033-.078.069-.117.108-.033.032-.049.055-.049.068.013.046.13.059.351.039.222-.026.466-.065.733-.117.267-.059.488-.134.664-.225.182-.097.237-.211.166-.342-.033-.039-.075-.071-.127-.097-.046-.033-.098-.056-.156-.069-.261 0-.498.053-.713.157-.215.097-.42.218-.615.361zm13.994 1.758c.358-.345.511-.43.459-.254-.046.169-.241.482-.586.937-.345.45-.775.938-1.289 1.465-.515.528-1.058.987-1.631 1.377-.573.384-1.117.593-1.631.625-.632 0-1.139-.185-1.524-.556-.377-.378-.647-.873-.81-1.485-.163-.618-.231-1.286-.205-2.002.032-.801.062-1.601.088-2.402.013-.404.026-.798.039-1.182.032-.644.055-1.289.068-1.933.013-.202-.019-.371-.097-.508-.079-.137-.219-.212-.42-.225-.228-.013-.515-.019-.86-.019h-.771c-.3-.033-.498-.111-.596-.235-.104-.13-.026-.26.234-.39.183-.072.404-.111.664-.117.254-.007.505-.004.752.009.157.013.293.02.411.02.384 0 .618-.059.703-.176.084-.124.136-.365.156-.723.026-.377.046-.758.059-1.142.013-.202.029-.404.048-.606 0-.299.079-.569.235-.81.169-.228.384-.316.644-.264.228.059.355.202.381.43.02.377.029.758.029 1.142.013.215.013.43 0 .645 0 .228.007.465.02.713-.013.338.026.553.117.644.091.085.316.127.674.127h1.738c.261 0 1.035-.016 2.324-.049 1.29-.039 1.983.066 2.081.313.104.241-.71.381-2.442.42-1.048.058-1.859.088-2.431.088-.385-.013-.73-.02-1.036-.02-.514 0-.833.091-.957.274-.117.175-.169.534-.156 1.074-.013.462-.036 1.022-.068 1.68-.085 1.347-.127 2.721-.127 4.121.032.963.205 1.588.517 1.875.313.286.72.341 1.221.166.501-.183 1.042-.502 1.621-.957.586-.463 1.166-.957 1.738-1.485.124-.162.274-.315.45-.459.058-.052.114-.101.166-.146z" fill="#fff"/><path d="M306.5 93.5c0 25.578-17.023 48.817-44.719 65.687-27.688 16.865-65.97 27.313-108.281 27.313-42.311 0-80.5933-10.448-108.2808-27.313C17.5229 142.317.5 119.078.5 93.5c0-25.5784 17.0229-48.8171 44.7192-65.6875C72.9067 10.9475 111.189.5 153.5.5c42.311 0 80.593 10.4475 108.281 27.3125C289.477 44.6829 306.5 67.9216 306.5 93.5z" stroke="#fff"/></svg>